<svg xmlns="http://www.w3.org/2000/svg" width="24" height="24" viewBox="0 0 24 24">
  <g id="Group_501" data-name="Group 501" transform="translate(-1659.229 -333.291)">
    <rect id="Rectangle_11" data-name="Rectangle 11" width="24" height="24" transform="translate(1659.229 333.291)" opacity="0.004"/>
    <g id="noun-cart-3077691" transform="translate(1659.864 334.945)">
      <path id="Path_167" data-name="Path 167" d="M258.054,422.54a2.382,2.382,0,0,0-.577.077H250a2.381,2.381,0,0,0-.577-.077,2.183,2.183,0,1,0,2.182,2.182,2.1,2.1,0,0,0-.1-.639h4.452a2.092,2.092,0,0,0-.1.639,2.182,2.182,0,1,0,2.182-2.183Zm0,2.9h0Z" transform="translate(-240.184 -406.21)"/>
      <path id="Path_168" data-name="Path 168" d="M83.441,32.812H78.75v1.467h3.527l1.034,4.454L85,47.219l14.617,0,1.862-9.37H84.61ZM99.694,39.32l-1.28,6.439-12.21,0L84.922,39.32Z" transform="translate(-78.75 -32.812)"/>
    </g>
  </g>
</svg>
