<svg xmlns="http://www.w3.org/2000/svg" xmlns:xlink="http://www.w3.org/1999/xlink" width="24" height="24" viewBox="0 0 24 24">
  <defs>
    <linearGradient id="linear-gradient" x1="0.5" x2="0.5" y2="1" gradientUnits="objectBoundingBox">
      <stop offset="0" stop-color="#229b62"/>
      <stop offset="1" stop-color="#346db0"/>
    </linearGradient>
  </defs>
  <g id="Group_521" data-name="Group 521" transform="translate(-617 -163)">
    <rect id="Rectangle_350" data-name="Rectangle 350" width="24" height="24" transform="translate(617 163)" opacity="0" fill="url(#linear-gradient)"/>
    <path id="Path_342" data-name="Path 342" d="M102.177,33.6a2.065,2.065,0,0,0-.923.22c-2.873,2.2-5.745,4.45-8.609,6.677A.651.651,0,0,0,92.4,41v9.383a1.863,1.863,0,0,0,1.94,1.919h15.69a1.863,1.863,0,0,0,1.926-1.933V41a.651.651,0,0,0-.246-.507c-2.9-2.175-5.69-4.544-8.609-6.677a2.065,2.065,0,0,0-.923-.22Zm-8.5,8.49c2.556,1.91,5.007,4.008,7.579,5.877a2.071,2.071,0,0,0,1.847,0c2.53-1.932,5.058-3.917,7.579-5.877v8.283c.013.512-.3.65-.651.653H94.339a.573.573,0,0,1-.664-.64Z" transform="translate(526.823 132.047)" fill="url(#linear-gradient)"/>
  </g>
</svg>
