<svg xmlns="http://www.w3.org/2000/svg" width="24" height="24" viewBox="0 0 24 24">
  <g id="Group_717" data-name="Group 717" transform="translate(-1194.043 -518.052)">
    <rect id="Rectangle_527" data-name="Rectangle 527" width="24" height="24" transform="translate(1194.043 518.052)" fill="#316bb2" opacity="0"/>
    <path id="Union_2" data-name="Union 2" d="M14.341,16.476H.589a.573.573,0,1,1,0-1.146H14.341a2.687,2.687,0,0,1,2.614-2.023h0a2.616,2.616,0,1,1-2.614,3.168Zm1.107-.577a1.508,1.508,0,1,0,1.507-1.466A1.5,1.5,0,0,0,15.448,15.9ZM7.135,9.821H.589a.575.575,0,1,1,0-1.149H7.135a2.694,2.694,0,0,1,5.228,0h6.711a.609.609,0,0,1,.589.577.576.576,0,0,1-.588.572H12.363a2.694,2.694,0,0,1-5.228,0Zm1.107-.572A1.508,1.508,0,1,0,9.75,7.781,1.5,1.5,0,0,0,8.242,9.249ZM.024,2.617A2.664,2.664,0,0,1,2.708,0,2.661,2.661,0,0,1,5.322,2.041H19.052a.574.574,0,1,1,0,1.147H5.322A2.661,2.661,0,0,1,2.708,5.232,2.665,2.665,0,0,1,.024,2.617Zm1.177,0a1.508,1.508,0,0,0,3.014,0,1.507,1.507,0,0,0-3.014,0Z" transform="translate(1196.216 520.777)" fill="#316bb2"/>
  </g>
</svg>
