<svg xmlns="http://www.w3.org/2000/svg" width="24" height="24" viewBox="0 0 24 24">
  <g id="Group_505" data-name="Group 505" transform="translate(-1656.953 -332.953)">
    <rect id="Rectangle_11" data-name="Rectangle 11" width="24" height="24" transform="translate(1656.953 332.953)" opacity="0.004"/>
    <path id="noun-profile-5207768" d="M159.307,130.578c2.931,0,9.32,0,12.252-.02a2.066,2.066,0,0,0,2.012-2.513h0a8.359,8.359,0,0,0-16.3-.01v0a2.086,2.086,0,0,0,2.037,2.541Zm0-1.391a.7.7,0,0,1-.681-.841,6.968,6.968,0,0,1,13.587,0,.675.675,0,0,1-.659.82h0c-2.932.02-9.315.02-12.245.02Zm6.157-16.687a4.234,4.234,0,1,0,4.234,4.234A4.236,4.236,0,0,0,165.464,112.5Zm0,1.391a2.843,2.843,0,1,1-2.843,2.844A2.845,2.845,0,0,1,165.464,113.891Z" transform="translate(1503.533 223.414)" fill-rule="evenodd"/>
    <path id="Path_358" data-name="Path 358" d="M1668.789,345.9s-2.722,2.154-1.912,4.2c.511,1.31,4.308,2.506,6.126,2.768-4.95.229-10.763.361-10.763.361l-.837-1.324.36-1.8,2.829-3.283,2.722-.912Z"/>
  </g>
</svg>
