<svg id="Group_28" data-name="Group 28" xmlns="http://www.w3.org/2000/svg" width="40" height="40" viewBox="0 0 40 40">
  <rect id="Rectangle_4" data-name="Rectangle 4" width="40" height="40" fill="#316bb2" opacity="0"/>
  <g id="Group_10" data-name="Group 10" transform="translate(36.728 20) rotate(135)">
    <path id="Path_11" data-name="Path 11" d="M23.658,23.057a.595.595,0,0,1-.6.6h-.005q-5.519-.045-10.72-.048C8.263,23.6,4.413,23.589.607,23.547a.6.6,0,0,1-.587-.589L.013,22.27,0,20.893a.547.547,0,0,1,.013-.125.584.584,0,0,1,.16-.3.589.589,0,0,1,.421-.176h0l5.971.027,8.4.04,3.139.015L.627,2.892a.825.825,0,0,1,0-1.166l1.1-1.1a.824.824,0,0,1,1.166,0L20.376,18.11l-.016-3.138c-.013-2.594-.026-5.452-.04-8.406L20.293.6a.591.591,0,0,1,.176-.423.584.584,0,0,1,.3-.16A.482.482,0,0,1,20.887,0h.006l1.27.013.8.008a.6.6,0,0,1,.589.586c.041,3.807.052,7.656.062,11.731q.008,2.6.017,5.279T23.658,23.057Z" transform="translate(0 0)" fill="#316bb2"/>
  </g>
</svg>
