<svg width="13" height="12" viewBox="0 0 13 12" fill="none" xmlns="http://www.w3.org/2000/svg">
<path d="M11.9069 2.92118H10.5375V0.430378C10.5375 0.192708 10.3449 0 10.1072 0H2.80393C2.56626 0 2.37355 0.192683 2.37355 0.430378V2.92118H1.00419C0.450476 2.92118 0 3.37169 0 3.9254V8.2552C0 8.80892 0.450476 9.25939 1.00419 9.25939H2.37362V11.5696C2.37362 11.8073 2.56631 12 2.804 12H10.1071C10.3448 12 10.5375 11.8073 10.5375 11.5696V9.25939H11.9069C12.4606 9.25939 12.9111 8.80892 12.9111 8.2552V3.9254C12.9111 3.37171 12.4606 2.92118 11.9069 2.92118ZM3.23428 0.860756H9.67678V2.92118H3.23428V0.860756ZM9.67671 11.1392H3.23438C3.23438 11.0551 3.23438 7.72227 3.23438 7.61825H9.67673C9.67671 7.72489 9.67671 11.0584 9.67671 11.1392ZM10.1072 5.4483H9.01166C8.77399 5.4483 8.58128 5.25562 8.58128 5.01792C8.58128 4.78023 8.77397 4.58755 9.01166 4.58755H10.1072C10.3448 4.58755 10.5375 4.78023 10.5375 5.01792C10.5375 5.25562 10.3449 5.4483 10.1072 5.4483Z" fill="#316bb2"/>
</svg>
