<svg xmlns="http://www.w3.org/2000/svg" width="24" height="24" viewBox="0 0 24 24">
  <g id="Group_526" data-name="Group 526" transform="translate(-1656.953 -332.953)">
    <rect id="Rectangle_11" data-name="Rectangle 11" width="24" height="24" transform="translate(1656.953 332.953)" fill="#fff" opacity="0.004"/>
    <g id="Group_527" data-name="Group 527" transform="translate(1471.689 237.107)">
      <path id="Path_344" data-name="Path 344" d="M206.894,115.542l-2.68-5.012a8.484,8.484,0,1,0-13.89-.019l-2.69,5.03a.7.7,0,0,0,.6,1.031l2.1.049,1.05,1.725a.7.7,0,0,0,1.219-.038l2.348-4.461a8.436,8.436,0,0,0,4.619.006l2.345,4.455a.7.7,0,0,0,.947.294.7.7,0,0,0,.272-.256l1.05-1.725,2.1-.049a.7.7,0,0,0,.6-1.031Zm-2.457-9.951a7.3,7.3,0,0,1-1.817,4.831c-.455.361-.832.645-1.122.843-.423.289-1.109.707-2.04,1.241a7.1,7.1,0,0,1-4.418-.018c-.916-.526-1.592-.937-2.01-1.223-.273-.187-.624-.45-1.045-.782a7.294,7.294,0,0,1-1.871-4.892,7.162,7.162,0,1,1,14.323,0Zm-13.2,6.024a8.457,8.457,0,0,0,2.474,1.764l-1.759,3.342-.855-1.405-1.816-.042Zm12.069.015,1.948,3.643-1.816.042-.856,1.405-1.754-3.334A8.457,8.457,0,0,0,203.3,111.631Z" transform="translate(0 0)" fill="#fff"/>
      <path id="Path_345" data-name="Path 345" d="M286.472,168.092l-1.939-.678-1.235-1.656a.846.846,0,0,0-1.355,0l-1.235,1.656-1.939.678a.845.845,0,0,0-.417,1.278l1.178,1.708.038,2.081a.844.844,0,0,0,1.094.792l1.958-.6,1.958.6a.843.843,0,0,0,.234.038h.016a.847.847,0,0,0,.845-.83l.038-2.081,1.178-1.708a.845.845,0,0,0-.417-1.278Z" transform="translate(-85.346 -64.405)" fill="#fff"/>
    </g>
  </g>
</svg>
