<svg xmlns="http://www.w3.org/2000/svg" xmlns:xlink="http://www.w3.org/1999/xlink" width="24" height="24" viewBox="0 0 24 24">
  <defs>
    <linearGradient id="linear-gradient" x1="0.5" x2="0.5" y2="1" gradientUnits="objectBoundingBox">
      <stop offset="0" stop-color="#229b62"/>
      <stop offset="1" stop-color="#346db0"/>
    </linearGradient>
  </defs>
  <g id="Group_522" data-name="Group 522" transform="translate(-617 -163)">
    <rect id="Rectangle_350" data-name="Rectangle 350" width="24" height="24" transform="translate(617 163)" opacity="0" fill="url(#linear-gradient)"/>
    <path id="Path_343" data-name="Path 343" d="M170.451,98.473a8.4,8.4,0,0,0-2.453,4c.037,2.963,2.613,6.18,5.591,9.156a34.638,34.638,0,0,0,4.647,4.032c1.575,1.078,3.142,1.8,4.638,1.572,1.32-.143,2.947-1.531,3.934-2.46a1.882,1.882,0,0,0,0-2.488l-2.509-2.506a2.35,2.35,0,0,0-2.592-.2l-1.685,1.239c-.423.151-.9-.229-1.194-.434a18.852,18.852,0,0,1-2.092-1.877,21.049,21.049,0,0,1-1.9-2.025,1.507,1.507,0,0,1-.407-1.267c.422-.583.869-1.174,1.277-1.757a2.335,2.335,0,0,0-.222-2.488l-2.5-2.488a1.923,1.923,0,0,0-2.536-.01Zm1.7.841,2.49,2.5a1.208,1.208,0,0,1,.018,1.082l-1.185,1.619a2.379,2.379,0,0,0,.407,2.682,20.512,20.512,0,0,0,2.018,2.146c.63.63,3.486,2.879,3.486,2.879a1.912,1.912,0,0,1,.152,1.363,3.1,3.1,0,0,1-.971,1.1c.171-.21.7.113.258-.191a31.26,31.26,0,0,1-4.4-3.693c-2.882-2.879-5.176-6.057-5.239-8.287a7.542,7.542,0,0,1,2.074-3.181.724.724,0,0,1,.889-.018Z" transform="translate(451.362 67.36)" fill="url(#linear-gradient)"/>
    <path id="Path_357" data-name="Path 357" d="M631.756,178.953l-7.035-5.463s1.734,8.035,6.146,9.371,2.922-.937,2.922-.937l-.777-2.578Z" fill="url(#linear-gradient)"/>
  </g>
</svg>
