<svg width="21" height="17" viewBox="0 0 21 17" fill="none" xmlns="http://www.w3.org/2000/svg">
<path fill-rule="evenodd" clip-rule="evenodd" d="M17.5478 3.47556C17.2078 3.04111 16.6789 2.77667 16.1311 2.77667H4.62778L4.26889 1.37889C4.06111 0.566667 3.34333 0 2.51222 0H0.585556C0.264444 0 0 0.264444 0 0.585556C0 0.906667 0.264444 1.17111 0.585556 1.17111H2.51222C2.79556 1.17111 3.04111 1.36 3.11667 1.64333L5.42111 10.8233C5.62889 11.6356 6.34667 12.2022 7.17778 12.2022H14.7144C15.5456 12.2022 16.2822 11.6356 16.4711 10.8233L16.8518 9.25996C17.7136 9.89546 18.4327 10.7861 19 12L20.0353 11.5162C19.3016 9.94617 18.3269 8.82774 17.1418 8.06906L17.8878 5.00556C18.02 4.47667 17.9067 3.91 17.5478 3.47556ZM16.0638 7.49981L16.7356 4.7411C16.7923 4.55222 16.7356 4.36333 16.6223 4.21221C16.5089 4.0611 16.3201 3.96666 16.1312 3.96666H4.93005L6.57339 10.5589C6.64894 10.8422 6.8945 11.0311 7.17783 11.0311H14.7145C14.9978 11.0311 15.2434 10.8422 15.3189 10.5589L15.7879 8.63292C14.6442 8.10478 13.3075 7.89409 11.7928 7.88931L13.3871 9.16847L12.6809 10.0719L9.65364 7.64271C9.50865 7.52684 9.42654 7.34719 9.43443 7.16175C9.44171 6.97567 9.53715 6.80626 9.6903 6.70497L13.0682 4.48582L13.7014 5.45867L11.7642 6.73088C13.3658 6.73284 14.8082 6.96181 16.0638 7.49981ZM7.57443 12.9578C6.49776 12.9578 5.60999 13.8456 5.60999 14.9222C5.60999 15.9989 6.49776 16.8867 7.57443 16.8867C8.6511 16.8867 9.53887 15.9989 9.53887 14.9222C9.53887 13.8456 8.6511 12.9578 7.57443 12.9578ZM7.57449 15.6967C7.14005 15.6967 6.80005 15.3567 6.80005 14.9222C6.80005 14.4878 7.14005 14.1478 7.57449 14.1478C8.00894 14.1478 8.34894 14.4878 8.34894 14.9222C8.34894 15.3378 7.99005 15.6967 7.57449 15.6967ZM12.1078 14.9222C12.1078 13.8456 12.9956 12.9578 14.0722 12.9578C15.1489 12.9578 16.0178 13.8456 16.0367 14.9222C16.0367 15.9989 15.1489 16.8867 14.0722 16.8867C12.9956 16.8867 12.1078 15.9989 12.1078 14.9222ZM13.2977 14.9222C13.2977 15.3567 13.6377 15.6967 14.0722 15.6967C14.4877 15.6967 14.8466 15.3378 14.8466 14.9222C14.8466 14.4878 14.5066 14.1478 14.0722 14.1478C13.6377 14.1478 13.2977 14.4878 13.2977 14.9222Z" fill="#316bb2"/>
</svg>
