<svg width="15" height="16" viewBox="0 0 15 16" fill="none" xmlns="http://www.w3.org/2000/svg">
<path fill-rule="evenodd" clip-rule="evenodd" d="M12.7532 2.67987C11.3499 1.2749 9.48358 0.500824 7.49533 0.5C3.39835 0.5 0.0639954 3.83426 0.0623474 7.93234C0.0617981 9.24237 0.404022 10.5212 1.0545 11.6484L0 15.5L3.94034 14.4664C5.02606 15.0586 6.24838 15.3707 7.49231 15.3711H7.49542C11.5919 15.3711 14.9267 12.0366 14.9282 7.93829C14.929 5.95215 14.1566 4.08475 12.7532 2.67987ZM7.49533 14.1158H7.49277C6.38425 14.1154 5.29706 13.8174 4.34839 13.2547L4.12289 13.1207L1.78464 13.7341L2.40875 11.4544L2.26181 11.2206C1.64337 10.237 1.3168 9.1001 1.31735 7.9328C1.31863 4.52658 4.09012 1.75537 7.4978 1.75537C9.14795 1.75592 10.6991 2.39935 11.8655 3.56711C13.0319 4.73486 13.6739 6.28705 13.6733 7.93784C13.6718 11.3443 10.9005 14.1158 7.49533 14.1158ZM10.8841 9.48883C10.6984 9.39581 9.78525 8.94666 9.61496 8.88458C9.44485 8.8226 9.32089 8.79175 9.1972 8.9776C9.07333 9.16345 8.71747 9.58185 8.60907 9.70572C8.50067 9.82968 8.39246 9.84525 8.2067 9.75223C8.02094 9.6593 7.42255 9.4631 6.7131 8.83038C6.16104 8.33792 5.78833 7.72974 5.67993 7.54388C5.57172 7.35785 5.67902 7.26703 5.76141 7.16486C5.96246 6.91519 6.16379 6.65344 6.22568 6.52957C6.28766 6.40561 6.25662 6.29712 6.21011 6.20419C6.16379 6.11127 5.79236 5.19711 5.63763 4.82513C5.48676 4.46313 5.33377 4.51202 5.2197 4.50635C5.11148 4.50095 4.98761 4.49985 4.86374 4.49985C4.73996 4.49985 4.53873 4.54626 4.36844 4.7323C4.19824 4.91824 3.71851 5.36749 3.71851 6.28165C3.71851 7.1958 4.384 8.07892 4.47684 8.20288C4.56967 8.32684 5.7865 10.2028 7.64951 11.0071C8.09262 11.1987 8.43851 11.3128 8.70831 11.3984C9.15326 11.5398 9.55801 11.5198 9.87808 11.472C10.235 11.4187 10.9768 11.0227 11.1317 10.5889C11.2864 10.1551 11.2864 9.78326 11.2399 9.70572C11.1936 9.62827 11.0697 9.58185 10.8841 9.48883Z" fill="white"/>
</svg>
