<svg xmlns="http://www.w3.org/2000/svg" width="24" height="24" viewBox="0 0 24 24">
  <g id="Group_553" data-name="Group 553" transform="translate(-811 -6207)">
    <rect id="Rectangle_399" data-name="Rectangle 399" width="24" height="24" transform="translate(811 6207)" fill="#fff" opacity="0"/>
    <g id="Group_552" data-name="Group 552" transform="translate(1115.915 5742.744)">
      <path id="Path_354" data-name="Path 354" d="M-271.947,486.272a.492.492,0,0,1,.008.124A.2.2,0,0,0-271.947,486.272Z" transform="translate(-17.886 -10.096)" fill="#fff"/>
      <path id="Path_355" data-name="Path 355" d="M-292.915,469.439c-8.7,0-8.853.774-8.853,6.817s.152,6.817,8.853,6.817,8.853-.774,8.853-6.817S-284.215,469.439-292.915,469.439Zm2.821,7.263-3.994,1.931a.484.484,0,0,1-.694-.436v-3.774a.484.484,0,0,1,.686-.439l3.995,1.843a.471.471,0,0,1,.269.349.2.2,0,0,1,.008.124A.472.472,0,0,1-290.094,476.7Z" fill="#fff"/>
    </g>
  </g>
</svg>
