<svg width="16" height="15" viewBox="0 0 16 15" fill="none" xmlns="http://www.w3.org/2000/svg">
<path d="M7.25826 9.61872L5.11006 7.47066C4.82665 7.18731 4.36707 7.18721 4.08367 7.47071C3.80021 7.75416 3.80026 8.2137 4.08367 8.49715L7.47078 11.8842L7.4732 11.8864C7.48941 11.9024 7.50629 11.9177 7.52395 11.9322C7.52986 11.9371 7.53596 11.9415 7.54209 11.9459C7.5449 11.948 7.54772 11.95 7.55052 11.9521C7.5535 11.9543 7.55646 11.9566 7.55942 11.9588C7.56649 11.9642 7.57355 11.9695 7.58096 11.9745C7.58913 11.9799 7.59751 11.9848 7.60591 11.9897C7.6083 11.9911 7.61069 11.9925 7.61308 11.994C7.61612 11.9958 7.61912 11.9976 7.62212 11.9994C7.62863 12.0034 7.63511 12.0073 7.64187 12.0109C7.65029 12.0154 7.65887 12.0194 7.66745 12.0234C7.67002 12.0246 7.6726 12.0258 7.67516 12.027C7.67802 12.0283 7.68085 12.0297 7.68369 12.031C7.69115 12.0346 7.69861 12.0382 7.70633 12.0414C7.71405 12.0446 7.7219 12.0474 7.72975 12.0501C7.73282 12.0512 7.73588 12.0523 7.73894 12.0534C7.74168 12.0544 7.74441 12.0554 7.74715 12.0564C7.75583 12.0596 7.76452 12.0627 7.77339 12.0654C7.78113 12.0677 7.78892 12.0696 7.79672 12.0715C7.79985 12.0723 7.80297 12.0731 7.8061 12.0738C7.80924 12.0746 7.81236 12.0755 7.81549 12.0763C7.82437 12.0786 7.83325 12.0809 7.84234 12.0827C7.85164 12.0846 7.86103 12.0858 7.87043 12.0871C7.8735 12.0875 7.87658 12.088 7.87965 12.0884C7.88321 12.0889 7.88675 12.0895 7.89029 12.0901C7.89768 12.0912 7.90506 12.0924 7.91255 12.0932C7.93496 12.0953 7.95741 12.0964 7.97986 12.0965L7.98412 12.0967L7.98842 12.0965C8.01088 12.0964 8.03328 12.0953 8.05563 12.0932C8.06351 12.0924 8.07124 12.0911 8.07896 12.0899C8.08239 12.0894 8.08582 12.0888 8.08926 12.0883C8.09274 12.0878 8.09623 12.0873 8.09972 12.0868C8.10844 12.0856 8.11715 12.0844 8.1258 12.0827C8.13838 12.0802 8.15067 12.0767 8.16305 12.0736C8.17355 12.0709 8.18415 12.0687 8.1946 12.0655C8.20375 12.0628 8.21263 12.0595 8.2215 12.0562C8.2244 12.0552 8.22731 12.0541 8.23022 12.053C8.23303 12.052 8.23584 12.051 8.23865 12.0501C8.24635 12.0473 8.25403 12.0446 8.26162 12.0415C8.26956 12.0382 8.27723 12.0345 8.28491 12.0308C8.28794 12.0294 8.29098 12.0279 8.29404 12.0265C8.30478 12.0214 8.31552 12.0167 8.32602 12.0111C8.33392 12.0068 8.34151 12.0022 8.34912 11.9976C8.35148 11.9961 8.35384 11.9947 8.35622 11.9932C8.35886 11.9917 8.36152 11.9901 8.36417 11.9885C8.37184 11.984 8.3795 11.9796 8.38694 11.9746C8.39578 11.9686 8.40419 11.9622 8.41263 11.9558C8.41487 11.9541 8.41711 11.9524 8.41936 11.9507C8.42224 11.9486 8.42516 11.9465 8.42809 11.9444C8.43345 11.9405 8.43884 11.9366 8.44404 11.9323C8.46257 11.9171 8.48043 11.901 8.49746 11.884L11.8843 8.4971C12.1678 8.21365 12.1678 7.75412 11.8843 7.47066C11.7426 7.32889 11.5568 7.25805 11.3711 7.25805C11.1854 7.25805 10.9996 7.32894 10.8579 7.47066L8.70988 9.61867V0.725809C8.70988 0.324969 8.38491 0 7.98407 0C7.58323 0 7.25826 0.324969 7.25826 0.725809V9.61872Z" fill="black"/>
<path d="M14.5162 7.98368C14.5162 7.58283 14.8412 7.25787 15.242 7.25787C15.6428 7.25787 15.9678 7.58283 15.9678 7.98368V14.274C15.9678 14.6749 15.6428 14.9998 15.242 14.9998H0.72581C0.324969 14.9998 0 14.6749 0 14.274V7.98368C0 7.58283 0.324969 7.25787 0.72581 7.25787C1.12665 7.25787 1.45162 7.58283 1.45162 7.98368V13.5482H14.5162V7.98368Z" fill="black"/>
</svg>
