<svg width="10" height="7" viewBox="0 0 10 7" fill="none" xmlns="http://www.w3.org/2000/svg">
<path d="M9.11302 0.00584632C8.93431 0.0282213 8.76907 0.108052 8.64481 0.232045L3.36311 5.24739L1.28493 3.67183C1.2041 3.60978 1.11115 3.5635 1.01143 3.53566C0.9117 3.50783 0.807165 3.49899 0.703828 3.50964C0.600491 3.52029 0.500387 3.55021 0.409271 3.59771C0.318155 3.64521 0.237822 3.70935 0.172887 3.78642C0.107953 3.86349 0.0596977 3.952 0.0308945 4.04683C0.00209136 4.14167 -0.00669178 4.24097 0.00504933 4.33904C0.0167904 4.43712 0.0488246 4.53203 0.099311 4.6183C0.149797 4.70458 0.217741 4.78053 0.299237 4.84179L2.92776 6.83858C3.08029 6.95309 3.27199 7.01006 3.46605 6.99854C3.66011 6.98702 3.84285 6.90783 3.97918 6.77618L9.76194 1.28504C9.88024 1.1755 9.95932 1.03344 9.98802 0.878924C10.0167 0.724406 9.99357 0.565232 9.92186 0.423875C9.85015 0.282518 9.7335 0.16612 9.58837 0.0911127C9.44324 0.0161057 9.27696 -0.0137197 9.11302 0.00584632Z" fill="white"/>
</svg>
