<svg width="30" height="21" viewBox="0 0 30 21" fill="none" xmlns="http://www.w3.org/2000/svg">
<path d="M18.4546 0.0156451C18.6431 0.0419217 18.8202 0.121426 18.9651 0.244824L28.9656 8.57859C29.0773 8.67247 29.1671 8.78966 29.2287 8.92193C29.2903 9.0542 29.3223 9.19834 29.3223 9.34426C29.3223 9.49017 29.2903 9.63431 29.2287 9.76658C29.1671 9.89885 29.0773 10.016 28.9656 10.1099L18.9651 18.4437C18.8195 18.5635 18.643 18.6396 18.4559 18.6634C18.2689 18.6872 18.0789 18.6577 17.908 18.5782C17.737 18.4987 17.592 18.3725 17.4897 18.2142C17.3873 18.0558 17.3318 17.8718 17.3296 17.6832V14.3601C15.0748 14.3815 7.31943 14.8106 1.6517 19.7667C1.48654 19.9084 1.27966 19.9924 1.06245 20.0059C0.845242 20.0194 0.629555 19.9617 0.448114 19.8415C0.266674 19.7213 0.129381 19.5453 0.0570679 19.34C-0.0152473 19.1347 -0.0186386 18.9115 0.047411 18.7041C2.84792 10.0759 11.2652 6.25648 17.3296 4.59922V1.0157C17.3285 0.87316 17.3579 0.732033 17.4157 0.601776C17.4736 0.471519 17.5587 0.355129 17.6652 0.260429C17.7718 0.16573 17.8973 0.0949146 18.0335 0.0526954C18.1696 0.0104762 18.3132 -0.00216084 18.4546 0.0156451ZM19.3297 3.14081V5.34926C19.3298 5.57105 19.2562 5.78657 19.1204 5.96194C18.9846 6.13731 18.7944 6.26259 18.5796 6.31806C13.6795 7.55856 7.03768 10.3359 3.53719 15.9852C10.2346 12.0503 17.7463 12.3198 18.3817 12.3496C18.6378 12.363 18.879 12.4742 19.0554 12.6603C19.2318 12.8465 19.33 13.0932 19.3297 13.3497V15.5477L26.778 9.34947L19.3297 3.14081Z" fill="black"/>
</svg>
