<svg width="15" height="15" viewBox="0 0 15 15" fill="none" xmlns="http://www.w3.org/2000/svg">
<path d="M14.9464 7.7302C14.9335 7.75878 14.9174 7.78581 14.8982 7.81056V7.83735L11.8501 11.6464C11.7489 11.7744 11.5951 11.8492 11.4321 11.8501C11.3099 11.8477 11.1917 11.8064 11.0947 11.7322C10.9835 11.6428 10.9126 11.513 10.8975 11.3712C10.8824 11.2295 10.9244 11.0875 11.0143 10.9768L13.3501 8.03574H4.55366C4.36221 8.03574 4.18536 7.93362 4.0897 7.76788C3.99403 7.60214 3.99403 7.3979 4.0897 7.23216C4.18536 7.06643 4.36222 6.96431 4.55366 6.96431H13.3501L10.9982 4.02327C10.9084 3.91254 10.8663 3.7706 10.8814 3.62889C10.8964 3.48707 10.9675 3.35721 11.0786 3.26788C11.19 3.17855 11.3323 3.13742 11.4741 3.15356C11.616 3.16958 11.7455 3.24169 11.8339 3.35362L14.8821 7.1679V7.16778C14.896 7.18369 14.9069 7.20174 14.9143 7.22135C14.9252 7.23439 14.9341 7.24886 14.9411 7.26428C14.9691 7.31965 14.9872 7.37944 14.9947 7.44102C15.0027 7.49973 15.0027 7.55916 14.9947 7.61788V7.66607C14.9947 7.66607 14.9572 7.71425 14.9465 7.73028L14.9464 7.7302ZM7.5 13.9286H1.07143V1.07143H7.5C7.69144 1.07143 7.86829 0.969309 7.96396 0.803571C8.05962 0.637834 8.05962 0.433592 7.96396 0.267857C7.86829 0.102122 7.69144 0 7.5 0H0.535714C0.393655 0 0.257333 0.0564429 0.156888 0.156888C0.0564428 0.257333 0 0.393655 0 0.535714V14.4643C0 14.6063 0.0564428 14.7427 0.156888 14.8431C0.257333 14.9436 0.393655 15 0.535714 15H7.5C7.69144 15 7.86829 14.8979 7.96396 14.7321C8.05962 14.5664 8.05962 14.3622 7.96396 14.1964C7.86829 14.0307 7.69144 13.9286 7.5 13.9286Z" fill="black"/>
</svg>
