<?xml version="1.0" encoding="utf-8"?>
<!-- Generator: Adobe Illustrator 25.2.0, SVG Export Plug-In . SVG Version: 6.00 Build 0)  -->
<svg version="1.1" id="Layer_1" xmlns="http://www.w3.org/2000/svg" xmlns:xlink="http://www.w3.org/1999/xlink" x="0px" y="0px"
	 viewBox="0 0 25 25" style="enable-background:new 0 0 25 25;" xml:space="preserve">
<style type="text/css">
	.st0{fill-rule:evenodd;clip-rule:evenodd;}
</style>
<path class="st0" d="M24,21.5l-1,0h-0.5l0-0.5l0-11.5l-2.5,0h-0.5V9V1.5l-10,0l0,18.5v0.5H9H8.7H8.3l-0.1-0.3
	c-0.3-0.6-0.8-1.1-1.4-1.4l-0.3-0.1v-0.3v-17c0-0.3-0.1-0.9-0.8-0.9H1C0.8,0.5,0.5,0.6,0.5,1S0.8,1.5,1,1.5l4,0h0.5V2v16v0.4
	l-0.4,0.1c-1.6,0.2-2.8,1.8-2.5,3.4c0.2,1.5,1.5,2.6,3,2.6c0.1,0,0.3,0,0.4,0c1-0.1,1.8-0.8,2.3-1.7l0.1-0.3h0.3H24
	c0.2,0,0.5-0.1,0.5-0.5C24.5,21.6,24.2,21.5,24,21.5z M10.5,9V3V2.5H11h2h0.5V3v2.6l0.6-0.7l0.4-0.4l0.4,0.4l0.7,0.7l0-2.6V2.5H16h2
	h0.5V3v6v0.5H18h-7h-0.5V9z M21.5,11v10v0.5l-0.5,0l-10,0l-0.5,0V21l0-10l0-0.5H11h3h0.5l0,0.5l0,4.2l1-1.1l0.3-0.4l0.4,0.4l1.2,1.2
	l0-4.2v-0.5l0.5,0l3,0l0.5,0V11z"/>
</svg>
