<svg width="72" height="81" viewBox="0 0 72 81" fill="none" xmlns="http://www.w3.org/2000/svg">
<path d="M71.017 20.25C66.3943 20.25 62.1291 18.7186 58.704 16.1351C54.7758 13.1736 51.9535 8.82932 50.9568 3.82219C50.71 2.58504 50.5771 1.30834 50.5645 0H37.3592V36.083L37.3434 55.8473C37.3434 61.1313 33.9025 65.6116 29.1327 67.1873C27.7484 67.6445 26.2534 67.8612 24.6967 67.7758C22.7096 67.6666 20.8476 67.067 19.2292 66.0988C15.7851 64.039 13.45 60.3023 13.3867 56.0276C13.2871 49.3467 18.6881 43.8998 25.3643 43.8998C26.6821 43.8998 27.9477 44.1149 29.1327 44.5057V34.6433V31.098C27.8829 30.9129 26.6109 30.8164 25.3247 30.8164C18.0173 30.8164 11.183 33.8539 6.29764 39.3261C2.60518 43.4616 0.390334 48.7376 0.0486149 54.27C-0.3991 61.5378 2.26029 68.4466 7.41772 73.5439C8.17551 74.2922 8.97127 74.9867 9.80342 75.6274C14.2252 79.0304 19.631 80.875 25.3247 80.875C26.6109 80.875 27.8829 80.7801 29.1327 80.595C34.4515 79.8071 39.3589 77.3724 43.2317 73.5439C47.9905 68.8405 50.6198 62.5962 50.6483 55.9501L50.5803 26.4357C52.8505 28.1871 55.3327 29.6362 57.9968 30.761C62.1402 32.5092 66.5335 33.3951 71.0549 33.3935V23.8048V20.2468C71.0581 20.25 71.0201 20.25 71.017 20.25Z" fill="black"/>
</svg>
