<svg width="19" height="23" viewBox="0 0 19 23" fill="none" xmlns="http://www.w3.org/2000/svg">
<path fill-rule="evenodd" clip-rule="evenodd" d="M9.26273 10.9155C6.52465 10.9155 4.30499 8.69583 4.30499 5.95774C4.30499 3.21966 6.52465 1 9.26273 1C12.0008 1 14.2205 3.21966 14.2205 5.95774C14.2205 8.69583 12.0008 10.9155 9.26273 10.9155ZM17.5258 20.8917C17.5258 21.2829 17.2087 21.5999 16.8176 21.5999C16.4264 21.5999 16.1093 21.2829 16.1093 20.8917C16.1093 17.1105 13.0441 14.0453 9.26291 14.0453C5.48174 14.0453 2.4165 17.1105 2.4165 20.8917C2.4165 21.2829 2.0994 21.5999 1.70825 21.5999C1.31709 21.5999 1 21.2829 1 20.8917C1 16.3282 4.69943 12.6288 9.26291 12.6288C13.8264 12.6288 17.5258 16.3282 17.5258 20.8917ZM12.8042 5.95767C12.8042 7.91345 11.2187 9.49892 9.26292 9.49892C7.30714 9.49892 5.72167 7.91345 5.72167 5.95767C5.72167 4.00189 7.30714 2.41642 9.26292 2.41642C11.2187 2.41642 12.8042 4.00189 12.8042 5.95767Z" fill="black"/>
<path d="M3.80499 5.95774C3.80499 8.97197 6.2485 11.4155 9.26273 11.4155V10.4155C6.80079 10.4155 4.80499 8.41969 4.80499 5.95774H3.80499ZM9.26273 0.5C6.2485 0.5 3.80499 2.94352 3.80499 5.95774H4.80499C4.80499 3.4958 6.80079 1.5 9.26273 1.5V0.5ZM14.7205 5.95774C14.7205 2.94352 12.277 0.5 9.26273 0.5V1.5C11.7247 1.5 13.7205 3.4958 13.7205 5.95774H14.7205ZM9.26273 11.4155C12.277 11.4155 14.7205 8.97197 14.7205 5.95774H13.7205C13.7205 8.41969 11.7247 10.4155 9.26273 10.4155V11.4155ZM16.8176 22.0999C17.4849 22.0999 18.0258 21.559 18.0258 20.8917H17.0258C17.0258 21.0067 16.9326 21.0999 16.8176 21.0999V22.0999ZM15.6093 20.8917C15.6093 21.559 16.1503 22.0999 16.8176 22.0999V21.0999C16.7026 21.0999 16.6093 21.0067 16.6093 20.8917H15.6093ZM9.26291 14.5453C12.7679 14.5453 15.6093 17.3867 15.6093 20.8917H16.6093C16.6093 16.8344 13.3202 13.5453 9.26291 13.5453V14.5453ZM2.9165 20.8917C2.9165 17.3867 5.75788 14.5453 9.26291 14.5453V13.5453C5.2056 13.5453 1.9165 16.8344 1.9165 20.8917H2.9165ZM1.70825 22.0999C2.37555 22.0999 2.9165 21.559 2.9165 20.8917H1.9165C1.9165 21.0067 1.82326 21.0999 1.70825 21.0999V22.0999ZM0.5 20.8917C0.5 21.559 1.04095 22.0999 1.70825 22.0999V21.0999C1.59324 21.0999 1.5 21.0067 1.5 20.8917H0.5ZM9.26291 12.1288C4.42329 12.1288 0.5 16.0521 0.5 20.8917H1.5C1.5 16.6044 4.97557 13.1288 9.26291 13.1288V12.1288ZM18.0258 20.8917C18.0258 16.0521 14.1025 12.1288 9.26291 12.1288V13.1288C13.5502 13.1288 17.0258 16.6044 17.0258 20.8917H18.0258ZM9.26292 9.99892C11.4948 9.99892 13.3042 8.18959 13.3042 5.95767H12.3042C12.3042 7.6373 10.9425 8.99892 9.26292 8.99892V9.99892ZM5.22167 5.95767C5.22167 8.18959 7.031 9.99892 9.26292 9.99892V8.99892C7.58328 8.99892 6.22167 7.6373 6.22167 5.95767H5.22167ZM9.26292 1.91642C7.031 1.91642 5.22167 3.72575 5.22167 5.95767H6.22167C6.22167 4.27804 7.58328 2.91642 9.26292 2.91642V1.91642ZM13.3042 5.95767C13.3042 3.72575 11.4948 1.91642 9.26292 1.91642V2.91642C10.9425 2.91642 12.3042 4.27804 12.3042 5.95767H13.3042Z" fill="black"/>
</svg>
