<svg width="14" height="17" viewBox="0 0 14 17" fill="none" xmlns="http://www.w3.org/2000/svg">
<path fill-rule="evenodd" clip-rule="evenodd" d="M7.01663 8.21997C5.0229 8.21997 3.40665 6.60372 3.40665 4.60998C3.40665 2.61624 5.0229 1 7.01663 1C9.01037 1 10.6266 2.61624 10.6266 4.60998C10.6266 6.60372 9.01037 8.21997 7.01663 8.21997ZM13.0333 15.4844C13.0333 15.7692 12.8024 16.0001 12.5176 16.0001C12.2327 16.0001 12.0019 15.7692 12.0019 15.4844C12.0019 12.7312 9.7699 10.4992 7.01664 10.4992C4.26338 10.4992 2.03142 12.7312 2.03142 15.4844C2.03142 15.7692 1.80053 16.0001 1.51571 16.0001C1.23089 16.0001 1 15.7692 1 15.4844C1 12.1615 3.69374 9.46777 7.01664 9.46777C10.3395 9.46777 13.0333 12.1615 13.0333 15.4844ZM9.59511 4.60981C9.59511 6.03391 8.44065 7.18837 7.01655 7.18837C5.59245 7.18837 4.43799 6.03391 4.43799 4.60981C4.43799 3.18571 5.59245 2.03125 7.01655 2.03125C8.44065 2.03125 9.59511 3.18571 9.59511 4.60981Z" fill="white"/>
<path d="M3.28165 4.60998C3.28165 6.67276 4.95386 8.34497 7.01663 8.34497V8.09497C5.09193 8.09497 3.53165 6.53469 3.53165 4.60998H3.28165ZM7.01663 0.875C4.95386 0.875 3.28165 2.54721 3.28165 4.60998H3.53165C3.53165 2.68528 5.09193 1.125 7.01663 1.125V0.875ZM10.7516 4.60998C10.7516 2.54721 9.07941 0.875 7.01663 0.875V1.125C8.94134 1.125 10.5016 2.68528 10.5016 4.60998H10.7516ZM7.01663 8.34497C9.07941 8.34497 10.7516 6.67276 10.7516 4.60998H10.5016C10.5016 6.53469 8.94134 8.09497 7.01663 8.09497V8.34497ZM12.5176 16.1251C12.8714 16.1251 13.1583 15.8383 13.1583 15.4844H12.9083C12.9083 15.7002 12.7333 15.8751 12.5176 15.8751V16.1251ZM11.8769 15.4844C11.8769 15.8383 12.1637 16.1251 12.5176 16.1251V15.8751C12.3018 15.8751 12.1269 15.7002 12.1269 15.4844H11.8769ZM7.01664 10.6242C9.70086 10.6242 11.8769 12.8002 11.8769 15.4844H12.1269C12.1269 12.6621 9.83893 10.3742 7.01664 10.3742V10.6242ZM2.15642 15.4844C2.15642 12.8002 4.33242 10.6242 7.01664 10.6242V10.3742C4.19434 10.3742 1.90642 12.6621 1.90642 15.4844H2.15642ZM1.51571 16.1251C1.86957 16.1251 2.15642 15.8383 2.15642 15.4844H1.90642C1.90642 15.7002 1.7315 15.8751 1.51571 15.8751V16.1251ZM0.875 15.4844C0.875 15.8383 1.16186 16.1251 1.51571 16.1251V15.8751C1.29993 15.8751 1.125 15.7002 1.125 15.4844H0.875ZM7.01664 9.34277C3.62471 9.34277 0.875 12.0925 0.875 15.4844H1.125C1.125 12.2305 3.76278 9.59277 7.01664 9.59277V9.34277ZM13.1583 15.4844C13.1583 12.0925 10.4086 9.34277 7.01664 9.34277V9.59277C10.2705 9.59277 12.9083 12.2305 12.9083 15.4844H13.1583ZM7.01655 7.31337C8.50968 7.31337 9.72011 6.10294 9.72011 4.60981H9.47011C9.47011 5.96487 8.37161 7.06337 7.01655 7.06337V7.31337ZM4.31299 4.60981C4.31299 6.10294 5.52341 7.31337 7.01655 7.31337V7.06337C5.66148 7.06337 4.56299 5.96487 4.56299 4.60981H4.31299ZM7.01655 1.90625C5.52341 1.90625 4.31299 3.11667 4.31299 4.60981H4.56299C4.56299 3.25475 5.66148 2.15625 7.01655 2.15625V1.90625ZM9.72011 4.60981C9.72011 3.11667 8.50968 1.90625 7.01655 1.90625V2.15625C8.37161 2.15625 9.47011 3.25475 9.47011 4.60981H9.72011Z" fill="white"/>
</svg>
