<svg width="22" height="20" viewBox="0 0 22 20" fill="none" xmlns="http://www.w3.org/2000/svg">
<path d="M19.1305 20H2.60871C1.16994 20 0 18.83 0 17.3913V6.52167C0 5.08291 1.16994 3.91296 2.60871 3.91296H19.1305C20.5693 3.91296 21.7392 5.08291 21.7392 6.52167V17.3913C21.7392 18.83 20.5693 20 19.1305 20ZM2.60871 5.6521C2.12903 5.6521 1.73914 6.042 1.73914 6.52167V17.3913C1.73914 17.871 2.12903 18.2608 2.60871 18.2608H19.1305C19.6102 18.2608 20.0001 17.871 20.0001 17.3913V6.52167C20.0001 6.042 19.6102 5.6521 19.1305 5.6521H2.60871Z" fill="white"/>
<path d="M14.7817 5.6522H6.95557V2.95467C6.95557 1.32566 8.28129 0 9.91024 0H11.8267C13.4559 0 14.7816 1.32572 14.7816 2.95467L14.7817 5.6522ZM8.6947 3.91306H13.0425V2.95467C13.0425 2.2843 12.4974 1.73914 11.827 1.73914H9.91055C9.23992 1.73914 8.69477 2.28431 8.69477 2.95467L8.6947 3.91306Z" fill="white"/>
</svg>
