<svg width="40" height="40" viewBox="0 0 40 40" fill="none" xmlns="http://www.w3.org/2000/svg">
<circle cx="20" cy="20" r="20" fill="#961E70"/>
<path d="M19.5488 10.6751L19.5479 10.6759L14.6729 15.5745C14.3077 15.9415 14.3091 16.5351 14.6761 16.9004C15.0431 17.2657 15.6366 17.2642 16.0019 16.8973L19.2749 13.6083L19.2749 28.6626C19.2749 29.1804 19.6946 29.6001 20.2124 29.6001C20.7302 29.6001 21.1499 29.1804 21.1499 28.6626L21.1499 13.6084L24.4229 16.8972C24.7881 17.2642 25.3817 17.2656 25.7487 16.9004C26.1158 16.5351 26.117 15.9414 25.7519 15.5745L20.8769 10.6759L20.876 10.675C20.5095 10.3079 19.914 10.309 19.5488 10.6751Z" fill="white"/>
</svg>
