<svg width="17" height="17" viewBox="0 0 17 17" fill="none" xmlns="http://www.w3.org/2000/svg">
<path d="M4.25 0C4.089 0 3.9345 0.0639686 3.82066 0.177806C3.70683 0.291644 3.64286 0.446142 3.64286 0.607143V1.21429H2.42857C1.09366 1.21429 0 2.30794 0 3.64286V14.5714C0 15.9063 1.09366 17 2.42857 17H14.5714C15.9063 17 17 15.9063 17 14.5714V3.64286C17 2.30794 15.9063 1.21429 14.5714 1.21429H13.3571V0.607143C13.3571 0.446142 13.2932 0.291644 13.1793 0.177806C13.0655 0.0639686 12.911 0 12.75 0C12.589 0 12.4345 0.0639686 12.3207 0.177806C12.2068 0.291644 12.1429 0.446142 12.1429 0.607143V1.21429H9.10714V0.607143C9.10714 0.446142 9.04317 0.291644 8.92934 0.177806C8.8155 0.0639686 8.661 0 8.5 0C8.339 0 8.1845 0.0639686 8.07066 0.177806C7.95683 0.291644 7.89286 0.446142 7.89286 0.607143V1.21429H4.85714V0.607143C4.85714 0.446142 4.79317 0.291644 4.67934 0.177806C4.5655 0.0639686 4.411 0 4.25 0ZM2.42857 2.42857H3.64286V3.03571C3.64286 3.19671 3.70683 3.35121 3.82066 3.46505C3.9345 3.57889 4.089 3.64286 4.25 3.64286C4.411 3.64286 4.5655 3.57889 4.67934 3.46505C4.79317 3.35121 4.85714 3.19671 4.85714 3.03571V2.42857H7.89286V3.03571C7.89286 3.19671 7.95683 3.35121 8.07066 3.46505C8.1845 3.57889 8.339 3.64286 8.5 3.64286C8.661 3.64286 8.8155 3.57889 8.92934 3.46505C9.04317 3.35121 9.10714 3.19671 9.10714 3.03571V2.42857H12.1429V3.03571C12.1429 3.19671 12.2068 3.35121 12.3207 3.46505C12.4345 3.57889 12.589 3.64286 12.75 3.64286C12.911 3.64286 13.0655 3.57889 13.1793 3.46505C13.2932 3.35121 13.3571 3.19671 13.3571 3.03571V2.42857H14.5714C15.2546 2.42857 15.7857 2.9597 15.7857 3.64286V4.85714H1.21429V3.64286C1.21429 2.9597 1.74541 2.42857 2.42857 2.42857ZM1.21429 6.07143H15.7857V14.5714C15.7857 15.2546 15.2546 15.7857 14.5714 15.7857H2.42857C1.74541 15.7857 1.21429 15.2546 1.21429 14.5714V6.07143Z" fill="#838282"/>
<path d="M3.342 7.8947H4.55386C4.72218 7.8947 4.85783 8.03022 4.85783 8.19867V9.41053C4.85783 9.57885 4.72231 9.71437 4.55386 9.71437H3.342C3.17368 9.71437 3.03802 9.57885 3.03802 9.4104V8.19854C3.03802 8.03022 3.17354 7.8947 3.342 7.8947Z" fill="#838282"/>
<path d="M6.37483 7.8947H7.58669C7.75501 7.8947 7.89067 8.03022 7.89067 8.19867V9.41053C7.89067 9.57885 7.75515 9.71451 7.58669 9.71451H6.37483C6.20638 9.71437 6.07085 9.57885 6.07085 9.4104V8.19854C6.07085 8.03022 6.20638 7.8947 6.37483 7.8947Z" fill="#838282"/>
<path d="M9.41285 7.8947H10.6247C10.793 7.8947 10.9287 8.03022 10.9287 8.19867V9.41053C10.9287 9.57885 10.7932 9.71437 10.6247 9.71437H9.41285C9.24453 9.71437 9.10888 9.57885 9.10888 9.4104V8.19854C9.10888 8.03022 9.2444 7.8947 9.41285 7.8947Z" fill="#838282"/>
<path d="M12.4473 7.8947H13.6592C13.8275 7.8947 13.9631 8.03022 13.9631 8.19867V9.41053C13.9631 9.57885 13.8276 9.71451 13.6592 9.71451H12.4473C12.2789 9.71437 12.1433 9.57885 12.1433 9.4104V8.19854C12.1433 8.03022 12.2789 7.8947 12.4473 7.8947Z" fill="#838282"/>
<path d="M3.342 11.536H4.55386C4.72231 11.536 4.85783 11.6715 4.85783 11.84V13.0518C4.85783 13.2202 4.72231 13.3558 4.55386 13.3558L3.342 13.3557C3.17368 13.3557 3.03802 13.2202 3.03802 13.0517V11.8399C3.03816 11.6715 3.17368 11.536 3.342 11.536Z" fill="#838282"/>
<path d="M6.37483 11.536H7.58669C7.75501 11.536 7.89067 11.6715 7.89067 11.84V13.0518C7.89067 13.2202 7.75515 13.3558 7.58669 13.3558H6.37483C6.20638 13.3557 6.07085 13.2202 6.07085 13.0518V11.84C6.07085 11.6715 6.20638 11.536 6.37483 11.536Z" fill="#838282"/>
<path d="M9.41285 11.536H10.6247C10.7932 11.536 10.9287 11.6715 10.9287 11.84V13.0518C10.9287 13.2202 10.7932 13.3558 10.6247 13.3558H9.41285C9.24453 13.3558 9.10888 13.2203 9.10888 13.0518V11.84C9.10901 11.6715 9.24453 11.536 9.41285 11.536Z" fill="#838282"/>
<path d="M12.4473 11.536H13.6592C13.8275 11.536 13.9631 11.6715 13.9631 11.84V13.0518C13.9631 13.2202 13.8276 13.3558 13.6592 13.3558H12.4473C12.2789 13.3557 12.1433 13.2202 12.1433 13.0518V11.84C12.1433 11.6715 12.2789 11.536 12.4473 11.536Z" fill="#838282"/>
</svg>
