<svg width="12" height="12" viewBox="0 0 12 12" fill="none" xmlns="http://www.w3.org/2000/svg">
<path fill-rule="evenodd" clip-rule="evenodd" d="M6 10.8837C3.30279 10.8837 1.11628 8.69721 1.11628 6C1.11628 3.3028 3.30279 1.11628 6 1.11628C8.6972 1.11628 10.8837 3.3028 10.8837 6C10.8837 8.69721 8.6972 10.8837 6 10.8837ZM6 12C2.68629 12 -9.53674e-07 9.31371 -9.53674e-07 6C-9.53674e-07 2.68629 2.68629 0 6 0C9.31371 0 12 2.68629 12 6C12 9.31371 9.31371 12 6 12Z" fill="#838282"/>
<path fill-rule="evenodd" clip-rule="evenodd" d="M4.81586 8.57361C5.03382 8.79158 5.38722 8.79158 5.60518 8.57361L7.59466 6.58414C7.81263 6.36617 7.81263 6.01278 7.59466 5.79481L5.60519 3.80534C5.38722 3.58737 5.03382 3.58737 4.81586 3.80534C4.59789 4.0233 4.59789 4.3767 4.81586 4.59467L6.41067 6.18948L4.81586 7.78428C4.59789 8.00225 4.59789 8.35565 4.81586 8.57361Z" fill="#838282"/>
</svg>
