<svg width="11" height="12" viewBox="0 0 11 12" fill="none" xmlns="http://www.w3.org/2000/svg">
<path d="M3.381 0C3.2894 0 3.20149 0.0420402 3.13672 0.116854C3.07195 0.191668 3.03556 0.293205 3.03556 0.399015V0.79803H2.34467C1.58514 0.79803 0.962891 1.51678 0.962891 2.39409V9.57635C0.962891 10.4537 1.58514 11.1724 2.34467 11.1724H9.25356C10.0131 11.1724 10.6353 10.4537 10.6353 9.57635V2.39409C10.6353 1.51678 10.0131 0.79803 9.25356 0.79803H8.56267V0.399015C8.56267 0.293205 8.52628 0.191668 8.46151 0.116854C8.39674 0.0420402 8.30883 0 8.21723 0C8.12562 0 8.03772 0.0420402 7.97295 0.116854C7.90818 0.191668 7.87178 0.293205 7.87178 0.399015V0.79803H6.14456V0.399015C6.14456 0.293205 6.10816 0.191668 6.04339 0.116854C5.97862 0.0420402 5.89072 0 5.79912 0C5.70751 0 5.61961 0.0420402 5.55484 0.116854C5.49007 0.191668 5.45367 0.293205 5.45367 0.399015V0.79803H3.72645V0.399015C3.72645 0.293205 3.69005 0.191668 3.62528 0.116854C3.56051 0.0420402 3.47261 0 3.381 0ZM2.34467 1.59606H3.03556V1.99507C3.03556 2.10088 3.07195 2.20242 3.13672 2.27723C3.20149 2.35205 3.2894 2.39409 3.381 2.39409C3.47261 2.39409 3.56051 2.35205 3.62528 2.27723C3.69005 2.20242 3.72645 2.10088 3.72645 1.99507V1.59606H5.45367V1.99507C5.45367 2.10088 5.49007 2.20242 5.55484 2.27723C5.61961 2.35205 5.70751 2.39409 5.79912 2.39409C5.89072 2.39409 5.97862 2.35205 6.04339 2.27723C6.10816 2.20242 6.14456 2.10088 6.14456 1.99507V1.59606H7.87178V1.99507C7.87178 2.10088 7.90818 2.20242 7.97295 2.27723C8.03772 2.35205 8.12562 2.39409 8.21723 2.39409C8.30883 2.39409 8.39674 2.35205 8.46151 2.27723C8.52628 2.20242 8.56267 2.10088 8.56267 1.99507V1.59606H9.25356C9.64225 1.59606 9.94445 1.94512 9.94445 2.39409V3.19212H1.65378V2.39409C1.65378 1.94512 1.95597 1.59606 2.34467 1.59606ZM1.65378 3.99015H9.94445V9.57635C9.94445 10.0253 9.64225 10.3744 9.25356 10.3744H2.34467C1.95597 10.3744 1.65378 10.0253 1.65378 9.57635V3.99015Z" fill="#404040"/>
</svg>
