<svg width="12" height="12" viewBox="0 0 12 12" fill="none" xmlns="http://www.w3.org/2000/svg">
<path fill-rule="evenodd" clip-rule="evenodd" d="M6 10.8837C8.69721 10.8837 10.8837 8.69721 10.8837 6C10.8837 3.3028 8.69721 1.11628 6 1.11628C3.3028 1.11628 1.11628 3.3028 1.11628 6C1.11628 8.69721 3.3028 10.8837 6 10.8837ZM6 12C9.31371 12 12 9.31371 12 6C12 2.68629 9.31371 0 6 0C2.68629 0 0 2.68629 0 6C0 9.31371 2.68629 12 6 12Z" fill="#838282"/>
<path fill-rule="evenodd" clip-rule="evenodd" d="M7.18414 8.57361C6.96618 8.79158 6.61278 8.79158 6.39482 8.57361L4.40534 6.58414C4.18737 6.36617 4.18737 6.01278 4.40534 5.79481L6.39481 3.80534C6.61278 3.58737 6.96618 3.58737 7.18414 3.80534C7.40211 4.0233 7.40211 4.3767 7.18414 4.59467L5.58933 6.18948L7.18414 7.78428C7.40211 8.00225 7.40211 8.35565 7.18414 8.57361Z" fill="#838282"/>
</svg>
