<svg width="15" height="15" viewBox="0 0 15 15" fill="none" xmlns="http://www.w3.org/2000/svg">
<path d="M11.7539 15C10.089 15 7.22877 13.9056 4.15508 10.8369C2.46882 9.14163 1.16677 7.25322 0.462382 5.4721C-0.177971 3.71245 -0.156626 2.29614 0.547762 1.60944L0.697178 1.45923C0.803903 1.33047 0.931973 1.18026 1.06004 1.0515C1.59367 0.515021 2.16999 0 2.9811 0C3.68549 0 4.34719 0.386266 5.00888 1.20172C6.71649 3.32618 6.07614 4.24893 5.03023 5.32189L4.9235 5.42918C4.9235 5.55794 5.07292 6.20172 6.92994 8.06867C8.68024 9.82833 9.36328 10.0215 9.55539 10.0429L9.68346 9.91416C10.1957 9.39914 10.708 8.88412 11.5405 8.88412C12.1808 8.88412 12.9706 9.24893 13.8031 9.93562C14.5501 10.5794 14.913 11.1803 14.9984 11.824V11.8455C15.0411 12.8755 14.23 13.6052 13.675 14.0987C13.5896 14.1845 13.5042 14.2704 13.3975 14.3562C13.0346 14.7854 12.501 15 11.7539 15ZM3.00245 0.793991C2.51151 0.793991 2.08461 1.18026 1.65771 1.60944C1.55098 1.71674 1.42291 1.86695 1.33753 1.97425L1.31618 1.99571L1.14542 2.16738C0.697178 2.61803 0.739868 3.79828 1.2308 5.17167C1.8925 6.84549 3.13052 8.64807 4.7314 10.2575C7.61298 13.1545 10.3238 14.1845 11.7539 14.1845C12.4156 14.1845 12.6504 13.97 12.7571 13.7983C12.7998 13.7554 12.8212 13.7124 12.8852 13.691C12.9493 13.6481 13.0133 13.5837 13.0987 13.4979L13.12 13.4764C13.6963 12.9614 14.2086 12.4464 14.1873 11.867C14.1232 11.4592 13.8244 11.0086 13.2694 10.515C12.3729 9.78541 11.7966 9.65665 11.5405 9.65665C11.0709 9.65665 10.7507 9.95708 10.2598 10.4506L10.1104 10.6009C9.96094 10.7511 9.76884 10.8155 9.57673 10.8155C9.12848 10.8155 8.31737 10.5794 6.35362 8.60515C4.38988 6.6309 3.72818 5.42918 4.32584 4.84979L4.47526 4.69957C5.30771 3.86266 5.77731 3.39056 4.41122 1.67382C3.89894 1.09442 3.45069 0.793991 3.00245 0.793991Z" fill="#000000"/>
</svg>
