<svg width="18" height="17" viewBox="0 0 18 17" fill="none" xmlns="http://www.w3.org/2000/svg">
<path fill-rule="evenodd" clip-rule="evenodd" d="M16.1311 2.77667C16.6789 2.77667 17.2078 3.04111 17.5478 3.47556C17.9067 3.91 18.02 4.47667 17.8878 5.00556L16.4711 10.8233C16.2822 11.6356 15.5456 12.2022 14.7144 12.2022H7.17778C6.34667 12.2022 5.62889 11.6356 5.42111 10.8233L3.11667 1.64333C3.04111 1.36 2.79556 1.17111 2.51222 1.17111H0.585556C0.264444 1.17111 0 0.906667 0 0.585556C0 0.264444 0.264444 0 0.585556 0H2.51222C3.34333 0 4.06111 0.566667 4.26889 1.37889L4.62778 2.77667H16.1311ZM15.3189 10.5589L16.7356 4.7411C16.7923 4.55222 16.7356 4.36333 16.6223 4.21221C16.5089 4.0611 16.3201 3.96666 16.1312 3.96666H4.93005L6.57339 10.5589C6.64894 10.8422 6.8945 11.0311 7.17783 11.0311H14.7145C14.9978 11.0311 15.2434 10.8422 15.3189 10.5589Z" fill="black"/>
<path fill-rule="evenodd" clip-rule="evenodd" d="M5.60999 14.9225C5.60999 13.8458 6.49776 12.958 7.57443 12.958C8.6511 12.958 9.53887 13.8458 9.53887 14.9225C9.53887 15.9991 8.6511 16.8869 7.57443 16.8869C6.49776 16.8869 5.60999 15.9991 5.60999 14.9225ZM6.80005 14.9225C6.80005 15.3569 7.14005 15.6969 7.57449 15.6969C7.99005 15.6969 8.34894 15.338 8.34894 14.9225C8.34894 14.488 8.00894 14.148 7.57449 14.148C7.14005 14.148 6.80005 14.488 6.80005 14.9225Z" fill="black"/>
<path fill-rule="evenodd" clip-rule="evenodd" d="M12.1078 14.9225C12.1078 13.8458 12.9956 12.958 14.0722 12.958C15.1489 12.958 16.0178 13.8458 16.0367 14.9225C16.0367 15.9991 15.1489 16.8869 14.0722 16.8869C12.9956 16.8869 12.1078 15.9991 12.1078 14.9225ZM13.2977 14.9225C13.2977 15.3569 13.6377 15.6969 14.0722 15.6969C14.4877 15.6969 14.8466 15.338 14.8466 14.9225C14.8466 14.488 14.5066 14.148 14.0722 14.148C13.6377 14.148 13.2977 14.488 13.2977 14.9225Z" fill="black"/>
</svg>
