<svg width="13" height="15" viewBox="0 0 13 15" fill="none" xmlns="http://www.w3.org/2000/svg">
<path d="M10.4025 5.2381H9.80461V3.69048C9.80461 1.66667 8.13065 0 6.09799 0C4.06533 0 2.39137 1.66667 2.39137 3.69048V5.2381H1.79353C0.813065 5.2381 0 6.04762 0 7.02381V13.2143C0 14.1905 0.813065 15 1.79353 15H10.4025C11.3829 15 12.196 14.1905 12.196 13.2143V7.02381C12.196 6.04762 11.3829 5.2381 10.4025 5.2381ZM3.58705 3.69048C3.58705 2.30952 4.711 1.19048 6.09799 1.19048C7.48498 1.19048 8.60892 2.30952 8.60892 3.69048V5.2381H3.58705V3.69048ZM11.0003 13.2143C11.0003 13.5476 10.7372 13.8095 10.4025 13.8095H1.79353C1.45873 13.8095 1.19568 13.5476 1.19568 13.2143V7.02381C1.19568 6.69048 1.45873 6.42857 1.79353 6.42857H2.98921H9.20677H10.4025C10.7372 6.42857 11.0003 6.69048 11.0003 7.02381V13.2143ZM7.29367 10.119C7.29367 10.7857 6.76757 11.3095 6.09799 11.3095C5.42841 11.3095 4.9023 10.7857 4.9023 10.119C4.9023 9.45238 5.42841 8.92857 6.09799 8.92857C6.76757 8.92857 7.29367 9.45238 7.29367 10.119Z" fill="black"/>
</svg>
