<svg width="15" height="18" viewBox="0 0 15 18" fill="none" xmlns="http://www.w3.org/2000/svg">
<path d="M2.15841 17.1351C2.60624 17.5841 3.21492 17.8357 3.84924 17.834H3.8573L11.2938 17.8097H11.2937C11.9273 17.8064 12.5341 17.5528 12.9813 17.1041C13.4286 16.6553 13.6802 16.0478 13.6814 15.4142V5.10968H14.216H14.2159C14.3275 5.10968 14.4346 5.0653 14.5134 4.98646C14.5922 4.90762 14.6366 4.80052 14.6366 4.68892V2.68763C14.6366 2.57603 14.5922 2.46906 14.5134 2.39021C14.4346 2.31124 14.3275 2.267 14.2159 2.267H10.4273V0.75461C10.4273 0.643014 10.3829 0.536044 10.3041 0.457199C10.2252 0.378226 10.1181 0.333984 10.0065 0.333984H5.1293C4.897 0.333984 4.70856 0.522308 4.70856 0.754596V2.26699H0.919635C0.687333 2.26699 0.499023 2.45531 0.499023 2.6876V4.68889C0.499023 4.80049 0.543265 4.90759 0.622239 4.98643C0.70108 5.06528 0.808054 5.10965 0.919649 5.10965H1.45423V15.4385C1.45238 16.0754 1.70621 16.6865 2.15866 17.1349L2.15841 17.1351ZM12.8402 15.4142C12.8394 15.8253 12.6762 16.2193 12.386 16.5104C12.0958 16.8016 11.7023 16.9662 11.2912 16.9682L3.85468 16.9925H3.8494H3.84953C3.43737 16.9925 3.04222 16.8287 2.75076 16.5372C2.45942 16.2459 2.29566 15.8506 2.29579 15.4385V5.10963L12.84 5.10976L12.8402 15.4142ZM5.55008 1.17537H9.58614V2.26701H5.55008V1.17537ZM1.34024 3.10841H13.7956V4.26834H1.34024V3.10841Z" fill="white"/>
<path d="M7.56722 14.2106C7.67882 14.2106 7.78579 14.1663 7.86476 14.0874C7.94361 14.0085 7.98798 13.9014 7.98798 13.7899V7.41671C7.98798 7.1844 7.79952 6.99609 7.56723 6.99609C7.33494 6.99609 7.14648 7.18442 7.14648 7.41671V13.7899C7.14648 13.9014 7.19086 14.0085 7.2697 14.0874C7.34867 14.1663 7.45565 14.2106 7.56724 14.2106H7.56722Z" fill="white"/>
<path d="M5.02621 14.2106C5.1378 14.2106 5.24477 14.1663 5.32362 14.0874C5.40259 14.0085 5.44696 13.9014 5.44696 13.7899V7.41671C5.44696 7.1844 5.25851 6.99609 5.02622 6.99609C4.79378 6.99609 4.60547 7.18442 4.60547 7.41671V13.7899C4.60547 13.9014 4.64984 14.0085 4.72868 14.0874C4.80766 14.1663 4.91463 14.2106 5.02623 14.2106H5.02621Z" fill="white"/>
<path d="M10.1092 14.2106C10.2208 14.2106 10.3278 14.1663 10.4068 14.0874C10.4856 14.0085 10.53 13.9014 10.53 13.7899V7.41671C10.53 7.1844 10.3416 6.99609 10.1092 6.99609C9.87692 6.99609 9.68848 7.18442 9.68848 7.41671V13.7899C9.68848 13.9014 9.73285 14.0085 9.81182 14.0874C9.89066 14.1663 9.99764 14.2106 10.1092 14.2106H10.1092Z" fill="white"/>
</svg>
