<svg width="15" height="18" viewBox="0 0 15 18" fill="none" xmlns="http://www.w3.org/2000/svg">
<path d="M2.1589 17.1351C2.60672 17.5841 3.21541 17.8357 3.84973 17.834H3.85778L11.2943 17.8097H11.2942C11.9278 17.8064 12.5345 17.5528 12.9818 17.1041C13.4291 16.6553 13.6807 16.0478 13.6819 15.4142V5.10968H14.2165H14.2164C14.3279 5.10968 14.4351 5.0653 14.5139 4.98646C14.5927 4.90762 14.6371 4.80052 14.6371 4.68892V2.68763C14.6371 2.57603 14.5927 2.46906 14.5139 2.39021C14.4351 2.31124 14.3279 2.267 14.2164 2.267H10.4278V0.75461C10.4278 0.643014 10.3834 0.536044 10.3046 0.457199C10.2257 0.378226 10.1186 0.333984 10.007 0.333984H5.12979C4.89749 0.333984 4.70905 0.522308 4.70905 0.754596V2.26699H0.920123C0.687822 2.26699 0.499512 2.45531 0.499512 2.6876V4.68889C0.499512 4.80049 0.543754 4.90759 0.622727 4.98643C0.701568 5.06528 0.808542 5.10965 0.920137 5.10965H1.45472V15.4385C1.45287 16.0754 1.7067 16.6865 2.15915 17.1349L2.1589 17.1351ZM12.8407 15.4142C12.8399 15.8253 12.6767 16.2193 12.3865 16.5104C12.0962 16.8016 11.7028 16.9662 11.2917 16.9682L3.85517 16.9925H3.84989H3.85002C3.43786 16.9925 3.04271 16.8287 2.75124 16.5372C2.45991 16.2459 2.29615 15.8506 2.29628 15.4385V5.10963L12.8405 5.10976L12.8407 15.4142ZM5.55057 1.17537H9.58663V2.26701H5.55057V1.17537ZM1.34073 3.10841H13.7961V4.26834H1.34073V3.10841Z" fill="white"/>
</svg>
