<svg width="20" height="24" viewBox="0 0 20 24" fill="none" xmlns="http://www.w3.org/2000/svg">
<path d="M3.11347 20.774V20.924H3.26347H16.1497V22.2733H1.71729V3.12798H3.11347V20.774ZM17.017 23V20.924H19H19.15V20.774V6.56487V6.50475L19.1085 6.46127L13.793 0.896392L13.7487 0.85H13.6845H3.26347H3.11347V1V2.25131H1H0.85V2.40131V23V23.15H1H16.867H17.017V23ZM13.1318 6.98584V7.13584H13.2818H18.2827V20.0474H3.98076V1.72667H13.1318V6.98584ZM8.19887 7.30885H8.34887V7.15885V4.30433V4.15433H8.19887H5.39647H5.24647V4.30433V7.15885V7.30885H5.39647H8.19887ZM13.999 2.37826L17.7072 6.25917H13.999V2.37826ZM7.48158 6.43218H6.11376V5.031H7.48158V6.43218ZM5.68011 8.76782H6.40624C6.65023 8.76782 6.83988 8.57147 6.83988 8.32949C6.83988 8.08751 6.65023 7.89115 6.40624 7.89115H5.68011C5.43612 7.89115 5.24647 8.08751 5.24647 8.32949C5.24647 8.57147 5.43612 8.76782 5.68011 8.76782ZM7.80744 8.76782H16.5834C16.8197 8.76782 17.017 8.57343 17.017 8.32949C17.017 8.0875 16.8274 7.89115 16.5834 7.89115H7.80744C7.56344 7.89115 7.37379 8.08751 7.37379 8.32949C7.37379 8.57147 7.56344 8.76782 7.80744 8.76782ZM5.68011 10.9822H6.40624C6.65023 10.9822 6.83988 10.7859 6.83988 10.5439C6.83988 10.3019 6.65023 10.1056 6.40624 10.1056H5.68011C5.43612 10.1056 5.24647 10.3019 5.24647 10.5439C5.24647 10.7859 5.43612 10.9822 5.68011 10.9822ZM7.80744 10.9822H16.5834C16.8197 10.9822 17.017 10.7878 17.017 10.5439C17.017 10.3019 16.8274 10.1056 16.5834 10.1056H7.80744C7.56344 10.1056 7.37379 10.3019 7.37379 10.5439C7.37379 10.7859 7.56344 10.9822 7.80744 10.9822ZM5.68011 13.1967H6.40624C6.65023 13.1967 6.83988 13.0003 6.83988 12.7583C6.83988 12.5163 6.65023 12.32 6.40624 12.32H5.68011C5.43612 12.32 5.24647 12.5163 5.24647 12.7583C5.24647 13.0003 5.43612 13.1967 5.68011 13.1967ZM7.80744 13.1967H16.5834C16.8197 13.1967 17.017 13.0023 17.017 12.7583C17.017 12.5163 16.8274 12.32 16.5834 12.32H7.80744C7.56344 12.32 7.37379 12.5163 7.37379 12.7583C7.37379 13.0003 7.56344 13.1967 7.80744 13.1967ZM5.68011 15.4053H6.40624C6.65023 15.4053 6.83988 15.2089 6.83988 14.967C6.83988 14.725 6.65023 14.5286 6.40624 14.5286H5.68011C5.43612 14.5286 5.24647 14.725 5.24647 14.967C5.24647 15.2089 5.43612 15.4053 5.68011 15.4053ZM7.80744 15.4053H16.5834C16.8197 15.4053 17.017 15.2109 17.017 14.967C17.017 14.725 16.8274 14.5286 16.5834 14.5286H7.80744C7.56344 14.5286 7.37379 14.725 7.37379 14.967C7.37379 15.2089 7.56344 15.4053 7.80744 15.4053ZM5.68011 17.6197H6.40624C6.65023 17.6197 6.83988 17.4234 6.83988 17.1814C6.83988 16.9394 6.65023 16.743 6.40624 16.743H5.68011C5.43612 16.743 5.24647 16.9394 5.24647 17.1814C5.24647 17.4234 5.43612 17.6197 5.68011 17.6197ZM7.80744 17.6197H16.5834C16.8197 17.6197 17.017 17.4253 17.017 17.1814C17.017 16.9394 16.8274 16.743 16.5834 16.743H7.80744C7.56344 16.743 7.37379 16.9394 7.37379 17.1814C7.37379 17.4234 7.56344 17.6197 7.80744 17.6197Z" fill="white" stroke="white" stroke-width="0.3"/>
</svg>
