<svg width="13" height="15" viewBox="0 0 13 15" fill="none" xmlns="http://www.w3.org/2000/svg">
<path d="M9.68007 15C11.057 15 12.1835 13.8735 12.1835 12.4965V4.2558V4.17241C12.1835 4.13064 12.1627 4.10983 12.1418 4.06807C12.1418 4.06807 12.1418 4.04726 12.121 4.04726C12.1002 4.00549 12.0792 3.98468 12.0584 3.96387L8.01105 0.125153C7.99024 0.104343 7.96929 0.0833869 7.92766 0.0625764C7.92766 0.0625764 7.90685 0.0625763 7.90685 0.0417662C7.86509 0.0209562 7.84428 0.0209561 7.80251 0H7.7817H7.71912H2.50347C1.12651 0 0 1.12651 0 2.50347V12.4758C0 13.8528 1.12651 14.9793 2.50347 14.9793H9.68021L9.68007 15ZM8.1362 1.39758L10.7232 3.81768L8.1362 3.81754V1.39758ZM0.834294 12.4965V2.52417C0.834294 1.60617 1.58535 0.85512 2.50334 0.85512H7.30174V4.25576C7.30174 4.48526 7.48947 4.67298 7.71895 4.67298H11.3491V12.4965C11.3491 13.4144 10.598 14.1655 9.68004 14.1655H2.5033C1.58531 14.1655 0.834257 13.4144 0.834257 12.4965L0.834294 12.4965Z" fill="black"/>
<path d="M3.02488 8.63667H6.46714C6.69663 8.63667 6.88435 8.44894 6.88435 8.21946C6.88435 7.98996 6.69662 7.80225 6.46714 7.80225H3.02488C2.79538 7.80225 2.60767 7.98997 2.60767 8.21946C2.60767 8.44896 2.7954 8.63667 3.02488 8.63667Z" fill="black"/>
<path d="M3.02488 11.5786H9.17935C9.40884 11.5786 9.59656 11.3908 9.59656 11.1614C9.59656 10.9319 9.40883 10.7441 9.17935 10.7441H3.02488C2.79538 10.7441 2.60767 10.9319 2.60767 11.1614C2.60767 11.3908 2.7954 11.5786 3.02488 11.5786Z" fill="black"/>
</svg>
