<svg width="15" height="12" viewBox="0 0 15 12" fill="none" xmlns="http://www.w3.org/2000/svg">
<path d="M13.5714 0H1.42857C1.04969 0 0.686328 0.148739 0.418419 0.413496C0.15051 0.678253 0 1.03734 0 1.41176V10.5882C0 10.9627 0.15051 11.3217 0.418419 11.5865C0.686328 11.8513 1.04969 12 1.42857 12H13.5714C13.9503 12 14.3137 11.8513 14.5816 11.5865C14.8495 11.3217 15 10.9627 15 10.5882V1.41176C15 1.03734 14.8495 0.678253 14.5816 0.413496C14.3137 0.148739 13.9503 0 13.5714 0ZM14.2857 9.52941L9.71429 6L14.2857 2.48824V9.52941ZM1.42857 0.705882H13.5714C13.7609 0.705882 13.9426 0.780252 14.0765 0.912631C14.2105 1.04501 14.2857 1.22455 14.2857 1.41176V1.59176L8.57143 6C8.26233 6.2291 7.88638 6.35294 7.5 6.35294C7.11362 6.35294 6.73767 6.2291 6.42857 6L0.714286 1.59176V1.41176C0.714286 1.22455 0.789541 1.04501 0.923495 0.912631C1.05745 0.780252 1.23913 0.705882 1.42857 0.705882ZM0.714286 2.47059L5.28571 6L0.714286 9.52941V2.47059ZM13.5714 11.2941H1.42857C1.23913 11.2941 1.05745 11.2197 0.923495 11.0874C0.789541 10.955 0.714286 10.7754 0.714286 10.5882V10.4082L5.86786 6.44824L6.00357 6.55059C6.4313 6.87972 6.9579 7.05843 7.5 7.05843C8.0421 7.05843 8.5687 6.87972 8.99643 6.55059L9.13214 6.44824L14.2857 10.4082V10.5882C14.2857 10.7754 14.2105 10.955 14.0765 11.0874C13.9426 11.2197 13.7609 11.2941 13.5714 11.2941Z" fill="#000000"/>
</svg>
