<svg width="21" height="15" viewBox="0 0 21 15" fill="none" xmlns="http://www.w3.org/2000/svg">
<path fill-rule="evenodd" clip-rule="evenodd" d="M1.35133 7.43233C1.35133 6.92504 1.55424 6.28971 1.99078 5.59648C2.42304 4.91 3.06078 4.20562 3.86489 3.57083C5.47527 2.29956 7.69605 1.35133 10.135 1.35133C12.574 1.35133 14.7947 2.29956 16.4051 3.57083C17.2092 4.20562 17.847 4.91 18.2792 5.59648C18.7158 6.28971 18.9187 6.92504 18.9187 7.43233C18.9187 7.93962 18.7158 8.57495 18.2792 9.26819C17.847 9.95466 17.2092 10.659 16.4051 11.2938C14.7947 12.5651 12.574 13.5133 10.135 13.5133C7.69605 13.5133 5.47527 12.5651 3.86489 11.2938C3.06078 10.659 2.42304 9.95466 1.99078 9.26819C1.55424 8.57495 1.35133 7.93962 1.35133 7.43233ZM10.135 0C7.34977 0 4.84081 1.07875 3.02759 2.51017C2.1199 3.22671 1.37235 4.04258 0.847279 4.87635C0.326482 5.70337 0 6.58829 0 7.43233C0 8.27637 0.326482 9.16129 0.847279 9.98831C1.37235 10.8221 2.1199 11.638 3.02759 12.3545C4.84081 13.7859 7.34977 14.8647 10.135 14.8647C12.9202 14.8647 15.4292 13.7859 17.2424 12.3545C18.1501 11.638 18.8977 10.8221 19.4227 9.98831C19.9435 9.16129 20.27 8.27637 20.27 7.43233C20.27 6.58829 19.9435 5.70337 19.4227 4.87635C18.8977 4.04258 18.1501 3.22671 17.2424 2.51017C15.4292 1.07875 12.9202 0 10.135 0ZM8.108 7.43233C8.108 6.31282 9.01549 5.40533 10.135 5.40533C11.2545 5.40533 12.162 6.31282 12.162 7.43233C12.162 8.55184 11.2545 9.45933 10.135 9.45933C9.01549 9.45933 8.108 8.55184 8.108 7.43233ZM10.135 4.054C8.26921 4.054 6.75667 5.56655 6.75667 7.43233C6.75667 9.29812 8.26921 10.8107 10.135 10.8107C12.0008 10.8107 13.5133 9.29812 13.5133 7.43233C13.5133 5.56655 12.0008 4.054 10.135 4.054Z" fill="black"/>
</svg>
