<svg width="24" height="15" viewBox="0 0 24 15" fill="none" xmlns="http://www.w3.org/2000/svg">
<path fill-rule="evenodd" clip-rule="evenodd" d="M23.0167 0.866025C23.2928 1.34432 23.1289 1.95591 22.6506 2.23205L1.86603 14.2321C1.38773 14.5082 0.776142 14.3443 0.5 13.866C0.223858 13.3877 0.387733 12.7761 0.866026 12.5L21.6506 0.5C22.1289 0.223858 22.7405 0.387733 23.0167 0.866025Z" fill="#949594"/>
<path fill-rule="evenodd" clip-rule="evenodd" d="M3.35133 7.43233C3.35133 6.92504 3.55424 6.28971 3.99078 5.59648C4.42304 4.91 5.06078 4.20562 5.86489 3.57083C7.47527 2.29956 9.69605 1.35133 12.135 1.35133C14.574 1.35133 16.7947 2.29956 18.4051 3.57083C19.2092 4.20562 19.847 4.91 20.2792 5.59648C20.7158 6.28971 20.9187 6.92504 20.9187 7.43233C20.9187 7.93962 20.7158 8.57495 20.2792 9.26819C19.847 9.95466 19.2092 10.659 18.4051 11.2938C16.7947 12.5651 14.574 13.5133 12.135 13.5133C9.69605 13.5133 7.47527 12.5651 5.86489 11.2938C5.06078 10.659 4.42304 9.95466 3.99078 9.26819C3.55424 8.57495 3.35133 7.93962 3.35133 7.43233ZM12.135 0C9.34977 0 6.84081 1.07875 5.02759 2.51017C4.1199 3.22671 3.37235 4.04258 2.84728 4.87635C2.32648 5.70337 2 6.58829 2 7.43233C2 8.27637 2.32648 9.16129 2.84728 9.98831C3.37235 10.8221 4.1199 11.638 5.02759 12.3545C6.84081 13.7859 9.34977 14.8647 12.135 14.8647C14.9202 14.8647 17.4292 13.7859 19.2424 12.3545C20.1501 11.638 20.8977 10.8221 21.4227 9.98831C21.9435 9.16129 22.27 8.27637 22.27 7.43233C22.27 6.58829 21.9435 5.70337 21.4227 4.87635C20.8977 4.04258 20.1501 3.22671 19.2424 2.51017C17.4292 1.07875 14.9202 0 12.135 0ZM10.108 7.43233C10.108 6.31282 11.0155 5.40533 12.135 5.40533C13.2545 5.40533 14.162 6.31282 14.162 7.43233C14.162 8.55184 13.2545 9.45933 12.135 9.45933C11.0155 9.45933 10.108 8.55184 10.108 7.43233ZM12.135 4.054C10.2692 4.054 8.75667 5.56655 8.75667 7.43233C8.75667 9.29812 10.2692 10.8107 12.135 10.8107C14.0008 10.8107 15.5133 9.29812 15.5133 7.43233C15.5133 5.56655 14.0008 4.054 12.135 4.054Z" fill="black"/>
</svg>
