<svg width="15" height="15" viewBox="0 0 15 15" fill="none" xmlns="http://www.w3.org/2000/svg">
<path d="M0.35868 2.14286H9.29699V2.5C9.29699 2.78416 9.41035 3.05668 9.61215 3.25761C9.81395 3.45855 10.0876 3.57143 10.373 3.57143H11.8077C12.0931 3.57143 12.3668 3.45855 12.5686 3.25761C12.7704 3.05668 12.8838 2.78416 12.8838 2.5V2.14286H14.5552C14.6504 2.14286 14.7416 2.10523 14.8089 2.03825C14.8761 1.97128 14.9139 1.88043 14.9139 1.78571C14.9139 1.69099 14.8761 1.60015 14.8089 1.53318C14.7416 1.4662 14.6504 1.42857 14.5552 1.42857H12.8838V1.07143C12.8838 0.787268 12.7704 0.514746 12.5686 0.313814C12.3668 0.112882 12.0931 0 11.8077 0H10.373C10.0876 0 9.81395 0.112882 9.61215 0.313814C9.41035 0.514746 9.29699 0.787268 9.29699 1.07143V1.42857H0.35868C0.263552 1.42857 0.172321 1.4662 0.105055 1.53318C0.0377895 1.60015 0 1.69099 0 1.78571C0 1.88043 0.0377895 1.97128 0.105055 2.03825C0.172321 2.10523 0.263552 2.14286 0.35868 2.14286Z" fill="black"/>
<path d="M14.6055 12.8571H11.4491V12.5C11.4491 12.2158 11.3357 11.9433 11.1339 11.7424C10.9321 11.5415 10.6584 11.4286 10.373 11.4286H8.93831C8.65292 11.4286 8.37923 11.5415 8.17743 11.7424C7.97563 11.9433 7.86227 12.2158 7.86227 12.5V12.8571H0.365854C0.270726 12.8571 0.179494 12.8948 0.112229 12.9617C0.0449631 13.0287 0.00717359 13.1196 0.00717359 13.2143C0.00717359 13.309 0.0449631 13.3998 0.112229 13.4668C0.179494 13.5338 0.270726 13.5714 0.365854 13.5714H7.86227V13.9286C7.86227 14.2127 7.97563 14.4853 8.17743 14.6862C8.37923 14.8871 8.65292 15 8.93831 15H10.373C10.6584 15 10.9321 14.8871 11.1339 14.6862C11.3357 14.4853 11.4491 14.2127 11.4491 13.9286V13.5714H14.6055C14.7006 13.5714 14.7918 13.5338 14.8591 13.4668C14.9263 13.3998 14.9641 13.309 14.9641 13.2143C14.9641 13.1196 14.9263 13.0287 14.8591 12.9617C14.7918 12.8948 14.7006 12.8571 14.6055 12.8571Z" fill="black"/>
<path d="M4.63415 9.28571H6.06887C6.35425 9.28571 6.62795 9.17283 6.82974 8.9719C7.03154 8.77097 7.14491 8.49845 7.14491 8.21429V7.85714H14.6413C14.7364 7.85714 14.8277 7.81952 14.8949 7.75254C14.9622 7.68556 15 7.59472 15 7.5C15 7.40528 14.9622 7.31444 14.8949 7.24746C14.8277 7.18048 14.7364 7.14286 14.6413 7.14286H7.14491V6.78571C7.14491 6.50155 7.03154 6.22903 6.82974 6.0281C6.62795 5.82717 6.35425 5.71429 6.06887 5.71429H4.63415C4.34876 5.71429 4.07507 5.82717 3.87327 6.0281C3.67147 6.22903 3.55811 6.50155 3.55811 6.78571V7.14286H0.401722C0.306594 7.14286 0.215362 7.18048 0.148097 7.24746C0.080831 7.31444 0.0430415 7.40528 0.0430415 7.5C0.0430415 7.59472 0.080831 7.68556 0.148097 7.75254C0.215362 7.81952 0.306594 7.85714 0.401722 7.85714H3.55811V8.21429C3.55811 8.49845 3.67147 8.77097 3.87327 8.9719C4.07507 9.17283 4.34876 9.28571 4.63415 9.28571Z" fill="black"/>
</svg>
