<svg width="15" height="15" viewBox="0 0 15 15" fill="none" xmlns="http://www.w3.org/2000/svg">
<path d="M4.37381 0C1.96193 0 3.05176e-05 1.96372 3.05176e-05 4.37622V10.6262C3.05176e-05 13.0381 1.96375 15 4.37625 15H10.6263C13.0381 15 15 13.0363 15 10.6238V4.37378C15 1.9619 13.0363 0 10.6238 0H4.37381ZM11.875 2.5C12.22 2.5 12.5 2.78 12.5 3.125C12.5 3.47 12.22 3.75 11.875 3.75C11.53 3.75 11.25 3.47 11.25 3.125C11.25 2.78 11.53 2.5 11.875 2.5ZM7.50003 3.75C9.56816 3.75 11.25 5.43188 11.25 7.5C11.25 9.56812 9.56816 11.25 7.50003 11.25C5.43191 11.25 3.75003 9.56812 3.75003 7.5C3.75003 5.43188 5.43191 3.75 7.50003 3.75ZM7.50003 5C6.83699 5 6.2011 5.26339 5.73226 5.73223C5.26342 6.20107 5.00003 6.83696 5.00003 7.5C5.00003 8.16304 5.26342 8.79893 5.73226 9.26777C6.2011 9.73661 6.83699 10 7.50003 10C8.16307 10 8.79896 9.73661 9.2678 9.26777C9.73664 8.79893 10 8.16304 10 7.5C10 6.83696 9.73664 6.20107 9.2678 5.73223C8.79896 5.26339 8.16307 5 7.50003 5Z" fill="white"/>
</svg>
