<svg width="11" height="15" viewBox="0 0 11 15" fill="none" xmlns="http://www.w3.org/2000/svg">
<path d="M5.49923 0C4.04074 0 2.64199 0.579381 1.61069 1.61069C0.579381 2.64199 0 4.04074 0 5.49923C0 8.40382 4.89931 14.548 5.10928 14.8129C5.15613 14.8713 5.21548 14.9184 5.28298 14.9508C5.35047 14.9832 5.42437 15 5.49923 15C5.57408 15 5.64798 14.9832 5.71548 14.9508C5.78297 14.9184 5.84233 14.8713 5.88917 14.8129C6.09914 14.548 10.9985 8.40382 10.9985 5.49923C10.9985 4.04074 10.4191 2.64199 9.38777 1.61069C8.35646 0.579381 6.95771 0 5.49923 0ZM5.49923 13.6881C3.95444 11.6884 0.999859 7.43895 0.999859 5.49923C0.999859 4.30592 1.4739 3.16149 2.31769 2.31769C3.16149 1.4739 4.30592 0.999859 5.49923 0.999859C6.69253 0.999859 7.83696 1.4739 8.68076 2.31769C9.52455 3.16149 9.99859 4.30592 9.99859 5.49923C9.99859 7.43895 7.04401 11.6784 5.49923 13.6881ZM5.49923 2.99958C5.00484 2.99958 4.52156 3.14618 4.1105 3.42084C3.69943 3.69551 3.37904 4.0859 3.18985 4.54265C3.00066 4.9994 2.95116 5.502 3.04761 5.98688C3.14406 6.47177 3.38213 6.91716 3.73171 7.26674C4.08129 7.61633 4.52668 7.8544 5.01157 7.95084C5.49645 8.04729 5.99905 7.99779 6.4558 7.8086C6.91255 7.61941 7.30294 7.29902 7.57761 6.88796C7.85227 6.47689 7.99887 5.99361 7.99887 5.49923C7.99887 4.83628 7.73552 4.20048 7.26674 3.73171C6.79797 3.26293 6.16217 2.99958 5.49923 2.99958ZM5.49923 6.99902C5.2026 6.99902 4.91263 6.91105 4.66599 6.74626C4.41935 6.58146 4.22712 6.34722 4.1136 6.07317C4.00009 5.79912 3.97039 5.49756 4.02825 5.20663C4.08612 4.9157 4.22897 4.64846 4.43871 4.43871C4.64846 4.22897 4.9157 4.08612 5.20663 4.02825C5.49756 3.97039 5.79912 4.00009 6.07317 4.1136C6.34722 4.22712 6.58146 4.41935 6.74626 4.66599C6.91105 4.91263 6.99901 5.2026 6.99901 5.49923C6.99901 5.897 6.841 6.27847 6.55974 6.55974C6.27847 6.841 5.89699 6.99902 5.49923 6.99902Z" fill="black"/>
</svg>
