<svg width="17" height="18" viewBox="0 0 17 18" fill="none" xmlns="http://www.w3.org/2000/svg">
<path d="M15.9651 8.62603C15.806 6.9664 15.1013 5.40632 13.9612 4.1898C12.8211 2.97328 11.31 2.16893 9.66415 1.90258L10.2551 1.47075C10.283 1.4508 10.3066 1.42552 10.3247 1.39637C10.3428 1.36722 10.3549 1.33477 10.3604 1.30091C10.3658 1.26704 10.3645 1.23243 10.3565 1.19907C10.3485 1.16571 10.334 1.13427 10.3138 1.10656C10.2936 1.07885 10.268 1.05543 10.2387 1.03764C10.2094 1.01985 10.1768 1.00805 10.1429 1.00292C10.109 0.997789 10.0744 0.999433 10.0411 1.00776C10.0078 1.01608 9.97654 1.03091 9.94903 1.0514L8.8355 1.86376C8.80786 1.88383 8.78445 1.90914 8.7666 1.93825C8.74875 1.96737 8.73681 1.99971 8.73147 2.03344C8.72613 2.06718 8.72749 2.10163 8.73546 2.13483C8.74344 2.16804 8.75789 2.19935 8.77797 2.22697L9.64786 3.41917C9.68884 3.47401 9.7498 3.51047 9.8175 3.52063C9.8852 3.53079 9.95417 3.51383 10.0094 3.47344C10.0647 3.43305 10.1018 3.37248 10.1127 3.30489C10.1236 3.2373 10.1074 3.16815 10.0676 3.11245L9.55741 2.41204C11.0948 2.65516 12.5077 3.40246 13.574 4.53639C14.6402 5.67032 15.2992 7.12652 15.4474 8.67594C15.5352 9.58819 15.4426 10.5088 15.1746 11.3853C14.9067 12.2617 14.4687 13.0768 13.8858 13.7839C13.3028 14.4911 12.5863 15.0765 11.7771 15.5068C10.9679 15.937 10.0819 16.2037 9.16959 16.2915C9.10066 16.2947 9.03584 16.3252 8.9894 16.3763C8.94296 16.4274 8.91871 16.4948 8.92197 16.5637C8.92523 16.6326 8.95575 16.6975 9.0068 16.7439C9.05785 16.7903 9.12526 16.8146 9.1942 16.8113C9.20263 16.8118 9.21107 16.8118 9.2195 16.8113C10.1999 16.717 11.1522 16.4304 12.0219 15.9679C12.8915 15.5055 13.6616 14.8762 14.288 14.1161C14.9144 13.356 15.3849 12.4799 15.6727 11.5379C15.9605 10.5959 16.0598 9.60645 15.9651 8.62603V8.62603Z" fill="black" stroke="black" stroke-width="0.4"/>
<path d="M8.22773 16.4114L7.35784 15.2192C7.31717 15.1635 7.25604 15.1263 7.18789 15.1157C7.11974 15.105 7.05017 15.1219 6.99447 15.1626C6.93876 15.2033 6.9015 15.2644 6.89088 15.3325C6.88025 15.4007 6.89713 15.4703 6.9378 15.526L7.45766 16.2357C5.77534 15.9813 4.24406 15.1207 3.1521 13.8158C2.06013 12.511 1.48281 10.852 1.52881 9.15122C1.57482 7.45039 2.24097 5.82504 3.40188 4.58117C4.56278 3.33729 6.13834 2.56068 7.83195 2.39755C7.90056 2.39097 7.96375 2.35741 8.00762 2.30425C8.05149 2.25108 8.07245 2.18267 8.06589 2.11406C8.06304 2.07991 8.05338 2.04668 8.03747 2.01632C8.02156 1.98597 7.99974 1.95912 7.97328 1.93734C7.94682 1.91557 7.91626 1.89932 7.88342 1.88955C7.85057 1.87978 7.8161 1.87669 7.78205 1.88047C5.96522 2.05368 4.27406 2.88401 3.02599 4.21561C1.77792 5.54722 1.05875 7.28855 1.00344 9.11278C0.948142 10.937 1.56052 12.7187 2.72564 14.1235C3.89075 15.5282 5.52851 16.4595 7.3315 16.7424L6.74996 17.1673C6.72206 17.1873 6.69838 17.2125 6.6803 17.2417C6.66223 17.2709 6.65011 17.3033 6.64465 17.3372C6.63919 17.371 6.64049 17.4056 6.64849 17.439C6.65649 17.4724 6.67101 17.5038 6.69123 17.5315C6.71145 17.5592 6.73697 17.5826 6.7663 17.6004C6.79562 17.6182 6.82819 17.63 6.86211 17.6352C6.89602 17.6403 6.93062 17.6386 6.9639 17.6303C6.99717 17.622 7.02847 17.6072 7.05598 17.5867L8.16951 16.7747C8.19709 16.7545 8.22044 16.7292 8.23823 16.7C8.25601 16.6709 8.26788 16.6386 8.27316 16.6048C8.27844 16.5711 8.27702 16.5367 8.26899 16.5035C8.26096 16.4703 8.24647 16.439 8.22635 16.4114H8.22773Z" fill="black" stroke="black" stroke-width="0.4"/>
<path d="M12.3338 5.22559H4.66764C4.59871 5.22559 4.53259 5.25297 4.48385 5.30172C4.4351 5.35046 4.40771 5.41658 4.40771 5.48551V13.1516C4.40771 13.2206 4.4351 13.2867 4.48385 13.3354C4.53259 13.3842 4.59871 13.4116 4.66764 13.4116H12.3338C12.4027 13.4116 12.4688 13.3842 12.5176 13.3354C12.5663 13.2867 12.5937 13.2206 12.5937 13.1516V5.48551C12.5937 5.41658 12.5663 5.35046 12.5176 5.30172C12.4688 5.25297 12.4027 5.22559 12.3338 5.22559V5.22559ZM7.70359 5.74544H9.29781V7.50844H7.70359V5.74544ZM12.0738 12.8917H4.92757V5.74544H7.18374V7.76837C7.18374 7.83731 7.21112 7.90342 7.25987 7.95216C7.30862 8.00091 7.37473 8.0283 7.44367 8.0283H9.55774C9.62668 8.0283 9.69279 8.00091 9.74154 7.95216C9.79028 7.90342 9.81767 7.83731 9.81767 7.76837V5.74544H12.0738V12.8917Z" fill="black" stroke="black" stroke-width="0.4"/>
</svg>
