<svg width="15" height="18" viewBox="0 0 15 18" fill="none" xmlns="http://www.w3.org/2000/svg">
<path fill-rule="evenodd" clip-rule="evenodd" d="M7.6565 8.9878C5.45073 8.9878 3.6626 7.19967 3.6626 4.9939C3.6626 2.78813 5.45073 1 7.6565 1C9.86227 1 11.6504 2.78813 11.6504 4.9939C11.6504 7.19967 9.86227 8.9878 7.6565 8.9878ZM14.313 17.0247C14.313 17.3398 14.0576 17.5952 13.7425 17.5952C13.4273 17.5952 13.1719 17.3398 13.1719 17.0247C13.1719 13.9786 10.7026 11.5093 7.6565 11.5093C4.61044 11.5093 2.14111 13.9786 2.14111 17.0247C2.14111 17.3398 1.88567 17.5952 1.57056 17.5952C1.25545 17.5952 1 17.3398 1 17.0247C1 13.3484 3.98022 10.3682 7.6565 10.3682C11.3328 10.3682 14.313 13.3484 14.313 17.0247ZM10.5093 4.9939C10.5093 6.56945 9.23205 7.84669 7.6565 7.84669C6.08095 7.84669 4.80371 6.56945 4.80371 4.9939C4.80371 3.41835 6.08095 2.14111 7.6565 2.14111C9.23205 2.14111 10.5093 3.41835 10.5093 4.9939Z" fill="black"/>
<path d="M3.5376 4.9939C3.5376 7.26871 5.38169 9.1128 7.6565 9.1128V8.8628C5.51976 8.8628 3.7876 7.13064 3.7876 4.9939H3.5376ZM7.6565 0.875C5.38169 0.875 3.5376 2.7191 3.5376 4.9939H3.7876C3.7876 2.85717 5.51976 1.125 7.6565 1.125V0.875ZM11.7754 4.9939C11.7754 2.7191 9.93131 0.875 7.6565 0.875V1.125C9.79324 1.125 11.5254 2.85717 11.5254 4.9939H11.7754ZM7.6565 9.1128C9.93131 9.1128 11.7754 7.26871 11.7754 4.9939H11.5254C11.5254 7.13064 9.79324 8.8628 7.6565 8.8628V9.1128ZM13.7425 17.7202C14.1266 17.7202 14.438 17.4088 14.438 17.0247H14.188C14.188 17.2708 13.9885 17.4702 13.7425 17.4702V17.7202ZM13.0469 17.0247C13.0469 17.4088 13.3583 17.7202 13.7425 17.7202V17.4702C13.4964 17.4702 13.2969 17.2708 13.2969 17.0247H13.0469ZM7.6565 11.6343C10.6335 11.6343 13.0469 14.0477 13.0469 17.0247H13.2969C13.2969 13.9096 10.7716 11.3843 7.6565 11.3843V11.6343ZM2.26611 17.0247C2.26611 14.0477 4.67947 11.6343 7.6565 11.6343V11.3843C4.5414 11.3843 2.01611 13.9096 2.01611 17.0247H2.26611ZM1.57056 17.7202C1.9547 17.7202 2.26611 17.4088 2.26611 17.0247H2.01611C2.01611 17.2708 1.81663 17.4702 1.57056 17.4702V17.7202ZM0.875 17.0247C0.875 17.4088 1.18641 17.7202 1.57056 17.7202V17.4702C1.32448 17.4702 1.125 17.2708 1.125 17.0247H0.875ZM7.6565 10.2432C3.91118 10.2432 0.875 13.2794 0.875 17.0247H1.125C1.125 13.4174 4.04925 10.4932 7.6565 10.4932V10.2432ZM14.438 17.0247C14.438 13.2794 11.4018 10.2432 7.6565 10.2432V10.4932C11.2638 10.4932 14.188 13.4174 14.188 17.0247H14.438ZM7.6565 7.97169C9.30109 7.97169 10.6343 6.63849 10.6343 4.9939H10.3843C10.3843 6.50042 9.16301 7.72169 7.6565 7.72169V7.97169ZM4.67871 4.9939C4.67871 6.63849 6.01191 7.97169 7.6565 7.97169V7.72169C6.14998 7.72169 4.92871 6.50042 4.92871 4.9939H4.67871ZM7.6565 2.01611C6.01191 2.01611 4.67871 3.34931 4.67871 4.9939H4.92871C4.92871 3.48739 6.14998 2.26611 7.6565 2.26611V2.01611ZM10.6343 4.9939C10.6343 3.34931 9.30109 2.01611 7.6565 2.01611V2.26611C9.16301 2.26611 10.3843 3.48739 10.3843 4.9939H10.6343Z" fill="black"/>
</svg>
