<svg width="16" height="15" viewBox="0 0 16 15" fill="none" xmlns="http://www.w3.org/2000/svg">
<path fill-rule="evenodd" clip-rule="evenodd" d="M14.3289 2.46644C14.8154 2.46644 15.2852 2.70134 15.5872 3.08725C15.906 3.47315 16.0067 3.97651 15.8893 4.44631L14.6309 9.61409C14.4631 10.3356 13.8087 10.8389 13.0705 10.8389H6.37584C5.63758 10.8389 5 10.3356 4.81544 9.61409L2.76846 1.45973C2.70134 1.20805 2.48322 1.04027 2.23154 1.04027H0.520134C0.234899 1.04027 0 0.805369 0 0.520134C0 0.234899 0.234899 0 0.520134 0H2.23154C2.9698 0 3.60738 0.503356 3.79195 1.22483L4.11074 2.46644H14.3289ZM13.6074 9.3792L14.8658 4.21142C14.9162 4.04363 14.8658 3.87585 14.7651 3.74162C14.6645 3.60739 14.4967 3.5235 14.3289 3.5235H4.37924L5.83897 9.3792C5.90609 9.63088 6.12421 9.79867 6.37589 9.79867H13.0705C13.3222 9.79867 13.5403 9.63088 13.6074 9.3792Z" fill="black"/>
<path fill-rule="evenodd" clip-rule="evenodd" d="M4.98315 13.2552C4.98315 12.2988 5.77174 11.5103 6.72812 11.5103C7.6845 11.5103 8.47309 12.2988 8.47309 13.2552C8.47309 14.2116 7.6845 15.0002 6.72812 15.0002C5.77174 15.0002 4.98315 14.2116 4.98315 13.2552ZM6.04025 13.2552C6.04025 13.6411 6.34226 13.9431 6.72817 13.9431C7.0973 13.9431 7.41609 13.6243 7.41609 13.2552C7.41609 12.8693 7.11408 12.5673 6.72817 12.5673C6.34226 12.5673 6.04025 12.8693 6.04025 13.2552Z" fill="black"/>
<path fill-rule="evenodd" clip-rule="evenodd" d="M10.7551 13.2552C10.7551 12.2988 11.5437 11.5103 12.5001 11.5103C13.4565 11.5103 14.2283 12.2988 14.2451 13.2552C14.2451 14.2116 13.4565 15.0002 12.5001 15.0002C11.5437 15.0002 10.7551 14.2116 10.7551 13.2552ZM11.8121 13.2552C11.8121 13.6411 12.1141 13.9431 12.5 13.9431C12.8691 13.9431 13.1879 13.6243 13.1879 13.2552C13.1879 12.8693 12.8859 12.5673 12.5 12.5673C12.1141 12.5673 11.8121 12.8693 11.8121 13.2552Z" fill="black"/>
</svg>
