<svg width="80" height="80" viewBox="0 0 80 80" fill="none" xmlns="http://www.w3.org/2000/svg">
<path d="M48.8319 54.9595L36.4057 53.5294V37.602L37.2299 37.2559C37.6217 37.0983 38.1609 36.8793 38.2834 36.8079C39.6727 35.9784 41.0517 32.7369 41.8812 28.3099C42.0708 27.091 42.7899 26.018 43.8452 25.3791C44.5728 24.967 46.4456 24.3103 48.1043 27.0534C49.7633 29.7958 48.9338 33.5107 47.8196 36.2938L51.351 36.3652C52.9498 36.3946 54.4501 37.1422 55.4369 38.4002C56.4233 39.6585 56.7918 41.2938 56.4396 42.8531L54.6333 50.8424C54.3703 52.0226 53.7125 53.0779 52.7687 53.8336C51.8252 54.5897 50.6517 55.0011 49.4427 55C49.2386 54.9982 49.0345 54.9847 48.8318 54.9592L48.8319 54.9595ZM25.3279 54.8984H33.1597C33.5118 54.8984 33.8497 54.7586 34.0985 54.5094C34.3477 54.2602 34.4875 53.9223 34.4875 53.5702V37.7954V37.7958C34.485 37.4451 34.3438 37.11 34.095 36.8629C33.8461 36.6162 33.51 36.4774 33.1596 36.4774H25.3279C24.9758 36.4774 24.6378 36.6177 24.389 36.8665C24.1398 37.1157 24 37.4536 24 37.8057V53.5805C24.0025 53.9308 24.1438 54.2662 24.3926 54.5129C24.6414 54.76 24.9775 54.8984 25.3279 54.8984V54.8984Z" fill="#4FC925"/>
<path fill-rule="evenodd" clip-rule="evenodd" d="M40 6.18334C21.3229 6.18334 6.18334 21.3229 6.18334 40C6.18334 58.6771 21.3229 73.8167 40 73.8167C58.6771 73.8167 73.8167 58.676 73.8167 40C73.8167 21.3229 58.6771 6.18334 40 6.18334ZM0 40C0 17.9079 17.9079 0 40 0C62.0921 0 80 17.9079 80 40C80 62.0908 62.0922 80 40 80C17.9079 80 0 62.0921 0 40Z" fill="#4FC925"/>
</svg>
