<svg width="15" height="15" viewBox="0 0 15 15" fill="none" xmlns="http://www.w3.org/2000/svg">
<path d="M10.9092 9.54462C10.9092 9.16878 11.2151 8.86283 11.591 8.86283C11.9668 8.86283 12.2728 9.16878 12.2728 9.54462C12.2728 9.92047 11.9668 10.2264 11.591 10.2264C11.2151 10.2264 10.9092 9.92047 10.9092 9.54462Z" fill="black"/>
<path fill-rule="evenodd" clip-rule="evenodd" d="M14.318 5.45469V7.56291C14.7139 7.70411 14.9998 8.07897 14.9998 8.52282V10.5682C14.9998 11.0121 14.7139 11.387 14.318 11.5282V13.6364C14.318 14.3885 13.7064 15 12.9544 15H1.36362C0.611549 15 0 14.3884 0 13.6364V5.45469C0 4.70261 0.611582 4.09106 1.36362 4.09106H2.54239L9.25403 0.18367C9.56631 0.00191578 9.93116 -0.0470468 10.2801 0.0461796C10.6306 0.140045 10.9236 0.366096 11.105 0.682369L13.0629 4.10206C13.7635 4.15844 14.318 4.73981 14.318 5.45469ZM9.29932 4.09106H12.2706L11.5278 2.79363L9.29932 4.09106ZM7.94426 4.09106L11.1891 2.20196L10.8526 1.61419L6.59834 4.09106H7.94426ZM10.1036 0.704677C9.93148 0.658719 9.75139 0.682689 9.59725 0.772911L3.89749 4.09106H5.24334L10.5138 1.02252L10.5131 1.02127C10.4229 0.863805 10.2777 0.751275 10.1036 0.704677ZM12.9544 14.3182C13.3302 14.3182 13.6362 14.0122 13.6362 13.6364V11.591H11.5907C10.4628 11.591 9.54531 10.6735 9.54531 9.54553C9.54531 8.41761 10.4628 7.50011 11.5907 7.50011H13.6362V5.45469C13.6362 5.07884 13.3302 4.77289 12.9544 4.77289H1.36362C0.98778 4.77289 0.681829 5.07884 0.681829 5.45469V13.6364C0.681829 14.0122 0.98778 14.3182 1.36362 14.3182H12.9544ZM13.9771 10.9092C14.1652 10.9092 14.318 10.7563 14.318 10.5682V8.52282C14.318 8.33471 14.1652 8.18191 13.9771 8.18191H11.5907C10.8387 8.18191 10.2271 8.79349 10.2271 9.54553C10.2271 10.2976 10.8387 10.9092 11.5907 10.9092H13.9771Z" fill="black"/>
</svg>
