<svg width="34" height="43" viewBox="0 0 34 43" fill="none" xmlns="http://www.w3.org/2000/svg">
<path d="M27.1012 27.5527C26.5866 27.7045 25.8311 27.7217 25.021 27.6042C24.1517 27.4781 23.2649 27.2123 22.3934 26.8208C23.9476 26.5946 25.1533 26.6643 26.1847 27.0298C26.429 27.1163 26.8303 27.3477 27.1013 27.5526L27.1012 27.5527ZM18.4294 26.127C18.3662 26.1442 18.3039 26.1604 18.2419 26.1776C17.8237 26.2915 17.4168 26.4026 17.0246 26.5014L16.4959 26.6355C15.4323 26.9046 14.3448 27.1795 13.2707 27.507C13.6789 26.5226 14.0581 25.5274 14.4294 24.5543C14.7044 23.8341 14.9852 23.0983 15.2755 22.372C15.4228 22.6153 15.5765 22.8586 15.7364 23.1026C16.4652 24.2125 17.3812 25.2386 18.4294 26.127V26.127ZM15.7238 15.027C15.7929 16.2415 15.5308 17.4101 15.1463 18.531C14.6728 17.1448 14.4522 15.6142 15.0441 14.3786C15.196 14.0619 15.3203 13.8925 15.401 13.8041C15.5256 13.9965 15.6895 14.4267 15.7238 15.0269V15.027ZM10.1711 30.413C9.90508 30.889 9.6335 31.3345 9.35516 31.7553C8.68343 32.7676 7.58488 33.8515 7.02053 33.8515C6.96499 33.8515 6.89778 33.8426 6.79959 33.7389C6.73637 33.6726 6.72625 33.625 6.72931 33.5603C6.74834 33.188 7.24147 32.5252 7.95582 31.9106C8.60422 31.353 9.33701 30.8574 10.171 30.4131L10.1711 30.413ZM28.8982 27.6054C28.812 26.3656 26.725 25.5703 26.7044 25.5629C25.8977 25.2769 25.0213 25.1379 24.0253 25.1379C22.9589 25.1379 21.8094 25.2922 20.3331 25.6371C19.0194 24.7058 17.8846 23.5401 17.0368 22.2494C16.6624 21.6792 16.3258 21.11 16.0324 20.554C16.7486 18.8413 17.3936 16.9999 17.2764 14.9375C17.1819 13.2838 16.4363 12.173 15.4221 12.173C14.7264 12.173 14.1275 12.6882 13.6404 13.7058C12.7717 15.519 13 17.8392 14.3189 20.6077C13.8439 21.7234 13.4026 22.88 12.9754 23.9998C12.4439 25.392 11.8962 26.8284 11.2791 28.1949C9.54807 28.8798 8.12603 29.7105 6.94092 30.7301C6.16456 31.3969 5.22862 32.4164 5.1752 33.4806C5.14912 33.9817 5.32096 34.4413 5.67017 34.8096C6.04117 35.2005 6.50727 35.4064 7.01978 35.407C8.71244 35.407 10.3416 33.0814 10.6506 32.6149C11.2726 31.6774 11.8547 30.6317 12.4252 29.4253C13.8619 28.9061 15.3932 28.5186 16.8772 28.1439L17.4087 28.0089C17.8082 27.9073 18.2234 27.795 18.6493 27.6784C19.1001 27.5566 19.5638 27.4302 20.0351 27.3102C21.559 28.2793 23.1977 28.9114 24.7958 29.1434C26.142 29.3392 27.3375 29.2256 28.1467 28.8037C28.8749 28.4244 28.9151 27.8392 28.8982 27.6054L28.8982 27.6054ZM32.1764 38.2655C32.1764 40.536 30.1753 40.676 29.7716 40.6805H3.95386C1.69166 40.6805 1.55545 38.6657 1.55112 38.2655L1.55082 3.96607C1.55082 1.69342 3.55559 1.55563 3.95356 1.55107H21.394L21.4032 1.56028V8.36621C21.4032 9.73207 22.229 12.318 25.3561 12.318H32.1182L32.1762 12.376L32.1764 38.2655ZM30.5734 10.7667H25.3574C23.0958 10.7667 22.959 8.7629 22.9559 8.36643V3.11789L30.5734 10.7667ZM33.7276 38.2655V11.7361L22.9559 0.919634V0.869309H22.9043L22.0393 0H3.95392C2.58625 0 0 0.829167 0 3.9668V38.2663C0 39.638 0.826654 42.2324 3.95392 42.2324H29.774C31.1413 42.2321 33.7276 41.4033 33.7276 38.266" fill="#FF0C27"/>
</svg>
