<svg width="25" height="25" viewBox="0 0 25 25" fill="none" xmlns="http://www.w3.org/2000/svg">
<path d="M13.724 8H11.012L11.456 13.34H13.268L13.724 8Z" fill="black"/>
<path d="M11.384 16.148C11.64 16.388 11.968 16.508 12.368 16.508C12.76 16.508 13.084 16.388 13.34 16.148C13.596 15.9 13.724 15.6 13.724 15.248C13.724 14.888 13.596 14.592 13.34 14.36C13.092 14.128 12.768 14.012 12.368 14.012C11.968 14.012 11.64 14.128 11.384 14.36C11.128 14.592 11 14.888 11 15.248C11 15.6 11.128 15.9 11.384 16.148Z" fill="black"/>
<path fill-rule="evenodd" clip-rule="evenodd" d="M25 12.5C25 19.4036 19.4036 25 12.5 25C5.59644 25 0 19.4036 0 12.5C0 5.59644 5.59644 0 12.5 0C19.4036 0 25 5.59644 25 12.5ZM23 12.5C23 18.299 18.299 23 12.5 23C6.70101 23 2 18.299 2 12.5C2 6.70101 6.70101 2 12.5 2C18.299 2 23 6.70101 23 12.5Z" fill="black"/>
</svg>
