<svg width="15" height="15" viewBox="0 0 15 15" fill="none" xmlns="http://www.w3.org/2000/svg">
<path fill-rule="evenodd" clip-rule="evenodd" d="M13.8 7.5C13.8 10.9794 10.9794 13.8 7.5 13.8C4.02061 13.8 1.2 10.9794 1.2 7.5C1.2 4.02061 4.02061 1.2 7.5 1.2C10.9794 1.2 13.8 4.02061 13.8 7.5ZM15 7.5C15 11.6421 11.6421 15 7.5 15C3.35786 15 0 11.6421 0 7.5C0 3.35786 3.35786 0 7.5 0C11.6421 0 15 3.35786 15 7.5ZM7.26439 6.9987C8.01321 6.99225 8.74932 7.25591 9.12858 7.81188H9.12852C10.0349 9.13927 9.17029 10.4925 7.91673 10.7914V11.4985C7.81386 11.7751 7.56333 12 7.25144 12C6.93955 12 6.68901 11.7749 6.63111 11.4983V10.7912C5.7215 10.576 5.00154 9.82369 5.00154 8.92703C5.00154 8.65388 5.25208 8.42896 5.56374 8.42875C5.8754 8.42875 6.12616 8.65389 6.12616 8.93026C6.12616 9.44143 6.63089 9.85921 7.25122 9.85921C7.87154 9.85921 8.37628 9.44123 8.37628 8.93026C8.37628 8.41262 7.86532 7.99485 7.23855 8.0013C6.48972 8.00775 5.75361 7.74409 5.37436 7.18812C4.468 5.86398 5.33265 4.51077 6.63116 4.20857V3.50151C6.68907 3.22492 6.93963 3 7.25149 3C7.56336 3 7.8139 3.22514 7.91679 3.50172V4.20879C8.78144 4.42401 9.50139 5.17631 9.50139 6.07297C9.50139 6.34611 9.25086 6.57104 8.93919 6.57125C8.62753 6.57125 8.37677 6.34611 8.37677 6.06974C8.37677 5.55857 7.87204 5.14079 7.25171 5.14079C6.63139 5.14079 6.12666 5.55877 6.12666 6.06974C6.12666 6.58738 6.63761 7.00515 7.26439 6.9987Z" fill="black"/>
</svg>
