<svg xmlns="http://www.w3.org/2000/svg" width="24" height="24" viewBox="0 0 24 24">
  <g id="Group_526" data-name="Group 526" transform="translate(-1656.953 -332.953)">
    <rect id="Rectangle_11" data-name="Rectangle 11" width="24" height="24" transform="translate(1656.953 332.953)" opacity="0.004"/>
    <path id="Path_346" data-name="Path 346" d="M232.661,116.992c0-.063-.031-.094-.063-.157a.031.031,0,0,0-.031-.031.431.431,0,0,0-.094-.125l-4.457-4.489c-.031-.031-.094-.063-.125-.094a.031.031,0,0,1-.031-.031c-.063-.031-.094-.031-.157-.063h-9.228a.63.63,0,0,0-.628.628v17.578a.63.63,0,0,0,.628.628h13.592a.63.63,0,0,0,.628-.628V117.117a.238.238,0,0,0-.031-.126Zm-1.224,12.587H219.07V113.256h7.847v3.861a.63.63,0,0,0,.628.628h3.861v11.834ZM221.2,120.947h8.13a.628.628,0,1,1,0,1.255H221.2a.628.628,0,1,1,0-1.255Zm8.726,4.08a.63.63,0,0,1-.628.628h-8.1a.628.628,0,1,1,0-1.255h8.13a.624.624,0,0,1,.6.628Z" transform="translate(1443.684 223.536)"/>
  </g>
</svg>
