<svg width="19" height="19" viewBox="0 0 19 19" fill="none" xmlns="http://www.w3.org/2000/svg"><mask id="path-1-outside-1_1802_538" maskUnits="userSpaceOnUse" x="-0.520508" y="0" width="20" height="19" fill="black"><rect fill="white" x="-0.520508" width="20" height="19"></rect><path d="M18.5417 13.8951L14.9261 8.7983C15.258 7.92767 15.3734 6.98943 15.2623 6.06434C15.1512 5.13924 14.8169 4.255 14.2883 3.48773C13.7597 2.72046 13.0525 2.09315 12.2277 1.65979C11.4029 1.22643 10.4851 1 9.55332 1C8.62158 1 7.70379 1.22643 6.87896 1.65979C6.05412 2.09315 5.34696 2.72046 4.81833 3.48773C4.28971 4.255 3.95546 5.13924 3.84435 6.06434C3.73324 6.98943 3.84861 7.92767 4.18052 8.7983L0.564921 13.8951C0.519161 13.9593 0.490666 14.0342 0.482171 14.1125C0.473676 14.1909 0.485465 14.2702 0.516407 14.3427C0.54735 14.4152 0.596407 14.4785 0.658872 14.5266C0.721337 14.5747 0.795113 14.6059 0.873121 14.6173L4.09312 15.0773L5.59272 17.9638C5.62893 18.0341 5.68266 18.094 5.74874 18.1375C5.81481 18.181 5.89099 18.2067 5.96992 18.2122H6.00212C6.07549 18.2122 6.1478 18.1947 6.21302 18.1611C6.27824 18.1275 6.33447 18.0788 6.37702 18.019L9.55332 13.5478L12.7273 18.0213C12.7699 18.0811 12.8261 18.1298 12.8913 18.1634C12.9565 18.197 13.0289 18.2145 13.1022 18.2145H13.1344C13.2133 18.209 13.2895 18.1833 13.3556 18.1398C13.4217 18.0963 13.4754 18.0364 13.5116 17.9661L15.0112 15.0796L18.2312 14.6196C18.3092 14.6082 18.383 14.577 18.4455 14.5289C18.5079 14.4808 18.557 14.4175 18.5879 14.345C18.6189 14.2725 18.6307 14.1932 18.6222 14.1148C18.6137 14.0365 18.5852 13.9616 18.5394 13.8974L18.5417 13.8951ZM9.55332 1.9213C10.3905 1.92035 11.2135 2.13699 11.9416 2.54999C12.6698 2.96298 13.2781 3.55815 13.707 4.27711C14.1358 4.99607 14.3704 5.81415 14.3878 6.65111C14.4051 7.48806 14.2047 8.31517 13.806 9.0513L13.7807 9.0927C13.7163 9.21 13.6473 9.3227 13.5737 9.4331C13.5628 9.45162 13.5505 9.4693 13.5369 9.486C13.285 9.85479 12.9831 10.1869 12.6399 10.4727L12.6054 10.5026C12.495 10.5923 12.3754 10.6774 12.2627 10.7579H12.2466C12.1247 10.8407 11.9959 10.9189 11.8648 10.9879L11.8165 11.0132C11.7084 11.0707 11.5865 11.1213 11.4876 11.1719L11.3749 11.2179C11.2691 11.2616 11.1633 11.3007 11.0529 11.3375C11.0253 11.3375 10.9977 11.3582 10.9678 11.3651C10.8367 11.4065 10.701 11.441 10.563 11.4709L10.4434 11.4939C10.3376 11.5123 10.2318 11.5284 10.1237 11.5422L9.99262 11.556C9.84772 11.5698 9.70052 11.579 9.55332 11.579C9.40612 11.579 9.25892 11.579 9.11402 11.556L8.98292 11.5422C8.87482 11.5284 8.76902 11.5123 8.66322 11.4939L8.54362 11.4709C8.40562 11.441 8.26992 11.4065 8.13882 11.3651C8.10892 11.3651 8.08132 11.3467 8.05372 11.3375C7.94332 11.3007 7.83752 11.2616 7.73172 11.2179L7.61902 11.1719C7.50862 11.1213 7.38902 11.0707 7.29012 11.0132L7.25332 10.9879C7.12222 10.9166 6.99342 10.8384 6.87152 10.7579H6.85542C6.73812 10.6774 6.62542 10.5923 6.51272 10.5026L6.47822 10.4727C6.13504 10.1869 5.83316 9.85479 5.58122 9.486C5.56766 9.4693 5.55536 9.45162 5.54442 9.4331C5.47082 9.3227 5.40182 9.2031 5.33742 9.0927L5.31212 9.0513C4.91395 8.31602 4.71348 7.48997 4.73032 6.65398C4.74717 5.81799 4.98076 5.00069 5.40823 4.28205C5.8357 3.56341 6.44241 2.96806 7.169 2.55425C7.89559 2.14044 8.71716 1.92234 9.55332 1.9213ZM6.06422 16.8713L4.80382 14.4379C4.76856 14.3755 4.71921 14.3222 4.65971 14.2823C4.60022 14.2424 4.53221 14.2169 4.46112 14.2079L1.75172 13.8123L4.64052 9.73899C4.73252 9.89079 4.83372 10.0357 4.93952 10.1783L4.95332 10.1967C5.2272 10.562 5.54378 10.8933 5.89632 11.1834C5.96532 11.2386 6.03432 11.2938 6.10562 11.3467L6.12862 11.3628C6.32177 11.5077 6.52465 11.6391 6.73582 11.7561L6.82322 11.8067L6.96352 11.878L7.11302 11.9516L7.23722 12.0068L7.42122 12.085L7.52242 12.1264L7.77542 12.2138L7.81912 12.2299C7.92492 12.2621 8.03072 12.292 8.13882 12.3196H8.15952C8.25612 12.3449 8.35502 12.3656 8.45392 12.3863L8.53442 12.4001L8.76442 12.4369L8.98292 12.7451L6.06422 16.8713ZM14.6455 14.2079C14.5744 14.2169 14.5064 14.2424 14.4469 14.2823C14.3874 14.3222 14.3381 14.3755 14.3028 14.4379L13.0424 16.8736L10.1168 12.7543L10.3353 12.4461L10.5653 12.4093L10.6458 12.3955C10.7447 12.3748 10.8436 12.3541 10.9402 12.3288H10.9609C11.069 12.3012 11.1748 12.2713 11.2806 12.2391L11.3243 12.223L11.5773 12.1356L11.6785 12.0942L11.8625 12.016L11.9867 11.9608L12.1362 11.8872L12.2765 11.8159L12.3639 11.7653C12.5751 11.6483 12.778 11.5169 12.9711 11.372L12.9941 11.3559C13.0654 11.303 13.1344 11.2478 13.2034 11.1926C13.5589 10.9 13.8779 10.5656 14.1533 10.1967L14.1671 10.1783C14.2729 10.0357 14.3741 9.89079 14.4661 9.73899L17.3549 13.8123L14.6455 14.2079Z"></path></mask><path d="M18.5417 13.8951L14.9261 8.7983C15.258 7.92767 15.3734 6.98943 15.2623 6.06434C15.1512 5.13924 14.8169 4.255 14.2883 3.48773C13.7597 2.72046 13.0525 2.09315 12.2277 1.65979C11.4029 1.22643 10.4851 1 9.55332 1C8.62158 1 7.70379 1.22643 6.87896 1.65979C6.05412 2.09315 5.34696 2.72046 4.81833 3.48773C4.28971 4.255 3.95546 5.13924 3.84435 6.06434C3.73324 6.98943 3.84861 7.92767 4.18052 8.7983L0.564921 13.8951C0.519161 13.9593 0.490666 14.0342 0.482171 14.1125C0.473676 14.1909 0.485465 14.2702 0.516407 14.3427C0.54735 14.4152 0.596407 14.4785 0.658872 14.5266C0.721337 14.5747 0.795113 14.6059 0.873121 14.6173L4.09312 15.0773L5.59272 17.9638C5.62893 18.0341 5.68266 18.094 5.74874 18.1375C5.81481 18.181 5.89099 18.2067 5.96992 18.2122H6.00212C6.07549 18.2122 6.1478 18.1947 6.21302 18.1611C6.27824 18.1275 6.33447 18.0788 6.37702 18.019L9.55332 13.5478L12.7273 18.0213C12.7699 18.0811 12.8261 18.1298 12.8913 18.1634C12.9565 18.197 13.0289 18.2145 13.1022 18.2145H13.1344C13.2133 18.209 13.2895 18.1833 13.3556 18.1398C13.4217 18.0963 13.4754 18.0364 13.5116 17.9661L15.0112 15.0796L18.2312 14.6196C18.3092 14.6082 18.383 14.577 18.4455 14.5289C18.5079 14.4808 18.557 14.4175 18.5879 14.345C18.6189 14.2725 18.6307 14.1932 18.6222 14.1148C18.6137 14.0365 18.5852 13.9616 18.5394 13.8974L18.5417 13.8951ZM9.55332 1.9213C10.3905 1.92035 11.2135 2.13699 11.9416 2.54999C12.6698 2.96298 13.2781 3.55815 13.707 4.27711C14.1358 4.99607 14.3704 5.81415 14.3878 6.65111C14.4051 7.48806 14.2047 8.31517 13.806 9.0513L13.7807 9.0927C13.7163 9.21 13.6473 9.3227 13.5737 9.4331C13.5628 9.45162 13.5505 9.4693 13.5369 9.486C13.285 9.85479 12.9831 10.1869 12.6399 10.4727L12.6054 10.5026C12.495 10.5923 12.3754 10.6774 12.2627 10.7579H12.2466C12.1247 10.8407 11.9959 10.9189 11.8648 10.9879L11.8165 11.0132C11.7084 11.0707 11.5865 11.1213 11.4876 11.1719L11.3749 11.2179C11.2691 11.2616 11.1633 11.3007 11.0529 11.3375C11.0253 11.3375 10.9977 11.3582 10.9678 11.3651C10.8367 11.4065 10.701 11.441 10.563 11.4709L10.4434 11.4939C10.3376 11.5123 10.2318 11.5284 10.1237 11.5422L9.99262 11.556C9.84772 11.5698 9.70052 11.579 9.55332 11.579C9.40612 11.579 9.25892 11.579 9.11402 11.556L8.98292 11.5422C8.87482 11.5284 8.76902 11.5123 8.66322 11.4939L8.54362 11.4709C8.40562 11.441 8.26992 11.4065 8.13882 11.3651C8.10892 11.3651 8.08132 11.3467 8.05372 11.3375C7.94332 11.3007 7.83752 11.2616 7.73172 11.2179L7.61902 11.1719C7.50862 11.1213 7.38902 11.0707 7.29012 11.0132L7.25332 10.9879C7.12222 10.9166 6.99342 10.8384 6.87152 10.7579H6.85542C6.73812 10.6774 6.62542 10.5923 6.51272 10.5026L6.47822 10.4727C6.13504 10.1869 5.83316 9.85479 5.58122 9.486C5.56766 9.4693 5.55536 9.45162 5.54442 9.4331C5.47082 9.3227 5.40182 9.2031 5.33742 9.0927L5.31212 9.0513C4.91395 8.31602 4.71348 7.48997 4.73032 6.65398C4.74717 5.81799 4.98076 5.00069 5.40823 4.28205C5.8357 3.56341 6.44241 2.96806 7.169 2.55425C7.89559 2.14044 8.71716 1.92234 9.55332 1.9213ZM6.06422 16.8713L4.80382 14.4379C4.76856 14.3755 4.71921 14.3222 4.65971 14.2823C4.60022 14.2424 4.53221 14.2169 4.46112 14.2079L1.75172 13.8123L4.64052 9.73899C4.73252 9.89079 4.83372 10.0357 4.93952 10.1783L4.95332 10.1967C5.2272 10.562 5.54378 10.8933 5.89632 11.1834C5.96532 11.2386 6.03432 11.2938 6.10562 11.3467L6.12862 11.3628C6.32177 11.5077 6.52465 11.6391 6.73582 11.7561L6.82322 11.8067L6.96352 11.878L7.11302 11.9516L7.23722 12.0068L7.42122 12.085L7.52242 12.1264L7.77542 12.2138L7.81912 12.2299C7.92492 12.2621 8.03072 12.292 8.13882 12.3196H8.15952C8.25612 12.3449 8.35502 12.3656 8.45392 12.3863L8.53442 12.4001L8.76442 12.4369L8.98292 12.7451L6.06422 16.8713ZM14.6455 14.2079C14.5744 14.2169 14.5064 14.2424 14.4469 14.2823C14.3874 14.3222 14.3381 14.3755 14.3028 14.4379L13.0424 16.8736L10.1168 12.7543L10.3353 12.4461L10.5653 12.4093L10.6458 12.3955C10.7447 12.3748 10.8436 12.3541 10.9402 12.3288H10.9609C11.069 12.3012 11.1748 12.2713 11.2806 12.2391L11.3243 12.223L11.5773 12.1356L11.6785 12.0942L11.8625 12.016L11.9867 11.9608L12.1362 11.8872L12.2765 11.8159L12.3639 11.7653C12.5751 11.6483 12.778 11.5169 12.9711 11.372L12.9941 11.3559C13.0654 11.303 13.1344 11.2478 13.2034 11.1926C13.5589 10.9 13.8779 10.5656 14.1533 10.1967L14.1671 10.1783C14.2729 10.0357 14.3741 9.89079 14.4661 9.73899L17.3549 13.8123L14.6455 14.2079Z" fill="black"></path><path d="M18.5417 13.8951L14.9261 8.7983C15.258 7.92767 15.3734 6.98943 15.2623 6.06434C15.1512 5.13924 14.8169 4.255 14.2883 3.48773C13.7597 2.72046 13.0525 2.09315 12.2277 1.65979C11.4029 1.22643 10.4851 1 9.55332 1C8.62158 1 7.70379 1.22643 6.87896 1.65979C6.05412 2.09315 5.34696 2.72046 4.81833 3.48773C4.28971 4.255 3.95546 5.13924 3.84435 6.06434C3.73324 6.98943 3.84861 7.92767 4.18052 8.7983L0.564921 13.8951C0.519161 13.9593 0.490666 14.0342 0.482171 14.1125C0.473676 14.1909 0.485465 14.2702 0.516407 14.3427C0.54735 14.4152 0.596407 14.4785 0.658872 14.5266C0.721337 14.5747 0.795113 14.6059 0.873121 14.6173L4.09312 15.0773L5.59272 17.9638C5.62893 18.0341 5.68266 18.094 5.74874 18.1375C5.81481 18.181 5.89099 18.2067 5.96992 18.2122H6.00212C6.07549 18.2122 6.1478 18.1947 6.21302 18.1611C6.27824 18.1275 6.33447 18.0788 6.37702 18.019L9.55332 13.5478L12.7273 18.0213C12.7699 18.0811 12.8261 18.1298 12.8913 18.1634C12.9565 18.197 13.0289 18.2145 13.1022 18.2145H13.1344C13.2133 18.209 13.2895 18.1833 13.3556 18.1398C13.4217 18.0963 13.4754 18.0364 13.5116 17.9661L15.0112 15.0796L18.2312 14.6196C18.3092 14.6082 18.383 14.577 18.4455 14.5289C18.5079 14.4808 18.557 14.4175 18.5879 14.345C18.6189 14.2725 18.6307 14.1932 18.6222 14.1148C18.6137 14.0365 18.5852 13.9616 18.5394 13.8974L18.5417 13.8951ZM9.55332 1.9213C10.3905 1.92035 11.2135 2.13699 11.9416 2.54999C12.6698 2.96298 13.2781 3.55815 13.707 4.27711C14.1358 4.99607 14.3704 5.81415 14.3878 6.65111C14.4051 7.48806 14.2047 8.31517 13.806 9.0513L13.7807 9.0927C13.7163 9.21 13.6473 9.3227 13.5737 9.4331C13.5628 9.45162 13.5505 9.4693 13.5369 9.486C13.285 9.85479 12.9831 10.1869 12.6399 10.4727L12.6054 10.5026C12.495 10.5923 12.3754 10.6774 12.2627 10.7579H12.2466C12.1247 10.8407 11.9959 10.9189 11.8648 10.9879L11.8165 11.0132C11.7084 11.0707 11.5865 11.1213 11.4876 11.1719L11.3749 11.2179C11.2691 11.2616 11.1633 11.3007 11.0529 11.3375C11.0253 11.3375 10.9977 11.3582 10.9678 11.3651C10.8367 11.4065 10.701 11.441 10.563 11.4709L10.4434 11.4939C10.3376 11.5123 10.2318 11.5284 10.1237 11.5422L9.99262 11.556C9.84772 11.5698 9.70052 11.579 9.55332 11.579C9.40612 11.579 9.25892 11.579 9.11402 11.556L8.98292 11.5422C8.87482 11.5284 8.76902 11.5123 8.66322 11.4939L8.54362 11.4709C8.40562 11.441 8.26992 11.4065 8.13882 11.3651C8.10892 11.3651 8.08132 11.3467 8.05372 11.3375C7.94332 11.3007 7.83752 11.2616 7.73172 11.2179L7.61902 11.1719C7.50862 11.1213 7.38902 11.0707 7.29012 11.0132L7.25332 10.9879C7.12222 10.9166 6.99342 10.8384 6.87152 10.7579H6.85542C6.73812 10.6774 6.62542 10.5923 6.51272 10.5026L6.47822 10.4727C6.13504 10.1869 5.83316 9.85479 5.58122 9.486C5.56766 9.4693 5.55536 9.45162 5.54442 9.4331C5.47082 9.3227 5.40182 9.2031 5.33742 9.0927L5.31212 9.0513C4.91395 8.31602 4.71348 7.48997 4.73032 6.65398C4.74717 5.81799 4.98076 5.00069 5.40823 4.28205C5.8357 3.56341 6.44241 2.96806 7.169 2.55425C7.89559 2.14044 8.71716 1.92234 9.55332 1.9213ZM6.06422 16.8713L4.80382 14.4379C4.76856 14.3755 4.71921 14.3222 4.65971 14.2823C4.60022 14.2424 4.53221 14.2169 4.46112 14.2079L1.75172 13.8123L4.64052 9.73899C4.73252 9.89079 4.83372 10.0357 4.93952 10.1783L4.95332 10.1967C5.2272 10.562 5.54378 10.8933 5.89632 11.1834C5.96532 11.2386 6.03432 11.2938 6.10562 11.3467L6.12862 11.3628C6.32177 11.5077 6.52465 11.6391 6.73582 11.7561L6.82322 11.8067L6.96352 11.878L7.11302 11.9516L7.23722 12.0068L7.42122 12.085L7.52242 12.1264L7.77542 12.2138L7.81912 12.2299C7.92492 12.2621 8.03072 12.292 8.13882 12.3196H8.15952C8.25612 12.3449 8.35502 12.3656 8.45392 12.3863L8.53442 12.4001L8.76442 12.4369L8.98292 12.7451L6.06422 16.8713ZM14.6455 14.2079C14.5744 14.2169 14.5064 14.2424 14.4469 14.2823C14.3874 14.3222 14.3381 14.3755 14.3028 14.4379L13.0424 16.8736L10.1168 12.7543L10.3353 12.4461L10.5653 12.4093L10.6458 12.3955C10.7447 12.3748 10.8436 12.3541 10.9402 12.3288H10.9609C11.069 12.3012 11.1748 12.2713 11.2806 12.2391L11.3243 12.223L11.5773 12.1356L11.6785 12.0942L11.8625 12.016L11.9867 11.9608L12.1362 11.8872L12.2765 11.8159L12.3639 11.7653C12.5751 11.6483 12.778 11.5169 12.9711 11.372L12.9941 11.3559C13.0654 11.303 13.1344 11.2478 13.2034 11.1926C13.5589 10.9 13.8779 10.5656 14.1533 10.1967L14.1671 10.1783C14.2729 10.0357 14.3741 9.89079 14.4661 9.73899L17.3549 13.8123L14.6455 14.2079Z" stroke="black" stroke-width="0.5" mask="url(#path-1-outside-1_1802_538)"></path><path d="M9.55342 9.17642C10.033 9.17642 10.5019 9.03419 10.9007 8.76773C11.2995 8.50127 11.6103 8.12253 11.7938 7.67942C11.9774 7.23631 12.0254 6.74873 11.9318 6.27832C11.8383 5.80792 11.6073 5.37583 11.2681 5.03668C10.929 4.69754 10.4969 4.46658 10.0265 4.37301C9.55611 4.27944 9.06852 4.32747 8.62541 4.51101C8.1823 4.69455 7.80357 5.00537 7.5371 5.40416C7.27064 5.80295 7.12842 6.2718 7.12842 6.75142C7.12842 7.39457 7.38391 8.01138 7.83868 8.46615C8.29346 8.92093 8.91027 9.17642 9.55342 9.17642ZM9.55342 5.49642C9.80163 5.49642 10.0443 5.57002 10.2507 5.70792C10.457 5.84582 10.6179 6.04183 10.7129 6.27115C10.8079 6.50047 10.8327 6.75281 10.7843 6.99626C10.7359 7.2397 10.6163 7.46332 10.4408 7.63884C10.2653 7.81435 10.0417 7.93388 9.79825 7.9823C9.55481 8.03073 9.30247 8.00587 9.07315 7.91089C8.84383 7.8159 8.64782 7.65504 8.50992 7.44866C8.37202 7.24227 8.29842 6.99963 8.29842 6.75142C8.29842 6.41857 8.43064 6.09936 8.666 5.864C8.90136 5.62864 9.22057 5.49642 9.55342 5.49642Z" fill="black" stroke="black" stroke-width="0.25"></path></svg>