<svg width="18" height="12" viewBox="0 0 18 12" fill="none" xmlns="http://www.w3.org/2000/svg">
<path d="M17.2046 5.22573L17.2038 5.22492L12.7505 0.793101C12.4169 0.461098 11.8773 0.462334 11.5452 0.795998C11.2131 1.12962 11.2144 1.66924 11.548 2.00128L14.538 4.97674L0.852272 4.97674C0.381562 4.97674 0 5.3583 0 5.82901C0 6.29972 0.381562 6.68128 0.852272 6.68128L14.5379 6.68128L11.5481 9.65673C11.2145 9.98878 11.2132 10.5284 11.5452 10.862C11.8773 11.1957 12.417 11.1969 12.7505 10.8649L17.2038 6.4331L17.2046 6.43229C17.5384 6.09914 17.5373 5.55777 17.2046 5.22573Z" fill="black"/>
</svg>
