<svg width="21" height="15" viewBox="0 0 21 15" fill="none" xmlns="http://www.w3.org/2000/svg">
<path d="M16.2553 2.27447H13.1459V0H2.34741V2.85029H0V3.80039H2.34741V5.72937H0.777351V6.67947H2.34741V8.60844H1.46833V9.55854H2.34741V13.1862H5.11132C5.25528 14.2227 6.14779 15 7.21305 15C8.27831 15 9.17083 14.2227 9.31478 13.1862H12.2246H13.1747H13.9808C14.1248 14.2227 15.0173 15 16.0825 15C17.1478 15 18.0403 14.2227 18.1843 13.1862H20.4012V6.93858C20.3436 4.11708 18.7313 2.27447 16.2553 2.27447ZM7.18426 14.0787C6.55086 14.0787 6.03263 13.5605 6.03263 12.9271C6.03263 12.2937 6.55086 11.7754 7.18426 11.7754C7.81766 11.7754 8.33589 12.2937 8.33589 12.9271C8.33589 13.5605 7.81766 14.0787 7.18426 14.0787ZM12.167 12.2649H9.19962C8.91171 11.4299 8.13436 10.7965 7.18426 10.7965C6.26296 10.7965 5.45681 11.4012 5.16891 12.2649H3.26872V0.978889H12.167V2.27447V12.2649ZM16.025 14.0787C15.3916 14.0787 14.8733 13.5605 14.8733 12.9271C14.8733 12.2937 15.3916 11.7754 16.025 11.7754C16.6584 11.7754 17.1766 12.2937 17.1766 12.9271C17.1766 13.5605 16.6584 14.0787 16.025 14.0787ZM19.3647 12.2649H18.0403C17.7524 11.4299 16.9751 10.7965 16.025 10.7965C15.0749 10.7965 14.2975 11.4012 14.0096 12.2649H13.1171V3.22457H16.2265C18.1555 3.22457 19.3359 4.66411 19.3359 6.96737V12.2649H19.3647Z" fill="white"/>
</svg>
