<svg version="1.2" xmlns="http://www.w3.org/2000/svg" viewBox="0 0 200 182" width="200" height="182">
	<title>shopping-bag-svg</title>
	<style>
		.s0 { fill: #000000 } 
		.s1 { fill: #961e70 } 
	</style>
	<g id="Page-1">
		<g id="shopping-bag">
			<path id="Shape" fill-rule="evenodd" class="s0" d="m82.2 181.9h-56.3c-14.3 0-25.9-11.7-25.9-26v-120.5c0-2.3 1.8-4.1 4-4.1h28.5c0.7-17.3 15-31.1 32.4-31.1c17.4 0 31.6 13.9 32.3 31.1h28.5c2.3 0 4.1 1.8 4.1 4.1v12c0 2.2-1.8 4-4.1 4c-2.2 0-4-1.8-4-4v-8h-24.4v15.2c0 2.3-1.8 4.1-4.1 4.1c-2.2 0-4-1.8-4-4.1v-15.2h-48.6v15.2c0 2.3-1.8 4.1-4 4.1c-2.3 0-4.1-1.8-4.1-4.1v-15.2h-24.4v116.5c0 9.8 8 17.9 17.8 17.9h56.3c2.2 0 4 1.8 4 4c0 2.2-1.8 4.1-4 4.1zm-41.6-150.6h48.6c-0.7-12.8-11.4-23-24.3-23c-13 0-23.6 10.2-24.3 23z" />
			<path id="Shape" fill-rule="evenodd" class="s1" d="m146.9 55c14.6 0 26.5 11.9 26.5 26.5v4.6h22.2c2.2 0 4 1.8 4 4.1v70.8c0 11.5-9.3 20.8-20.7 20.8h-63.9c-11.5 0-20.7-9.3-20.7-20.8v-70.8c0-2.3 1.7-4.1 4-4.1h22.2v-4.6c0-14.6 11.8-26.5 26.4-26.5zm18.4 49.2v-10h-36.7v10c0 2.3-1.8 4.1-4.1 4.1c-2.2 0-4-1.8-4-4.1v-10h-18.2v66.8c0 7 5.7 12.7 12.7 12.7h63.9c7 0 12.7-5.6 12.7-12.7v-66.8h-18.2v10c0 2.3-1.8 4.1-4 4.1c-2.3 0-4.1-1.8-4.1-4.1zm-18.3-41.1c-10.2 0-18.4 8.3-18.4 18.4v4.6h36.7v-4.6c0-10.1-8.2-18.4-18.3-18.4z" />
		</g>
	</g>
</svg>