<?xml version="1.0" encoding="UTF-8"?>
<svg xmlns="http://www.w3.org/2000/svg" xmlns:xlink="http://www.w3.org/1999/xlink" width="9px" height="17px" viewBox="0 0 9 17" version="1.1">
<defs>
<clipPath id="clip1">
  <path d="M 0.0273438 0.03125 L 8.96875 0.03125 L 8.96875 11 L 0.0273438 11 Z M 0.0273438 0.03125 "/>
</clipPath>
<clipPath id="clip2">
  <path d="M 0.0273438 0.03125 L 8.96875 0.03125 L 8.96875 12 L 0.0273438 12 Z M 0.0273438 0.03125 "/>
</clipPath>
<clipPath id="clip3">
  <path d="M 0.0273438 6 L 8.96875 6 L 8.96875 16.96875 L 0.0273438 16.96875 Z M 0.0273438 6 "/>
</clipPath>
<clipPath id="clip4">
  <path d="M 0.0273438 5 L 8.96875 5 L 8.96875 16.96875 L 0.0273438 16.96875 Z M 0.0273438 5 "/>
</clipPath>
<clipPath id="clip5">
  <path d="M 0.0273438 6 L 6 6 L 6 11 L 0.0273438 11 Z M 0.0273438 6 "/>
</clipPath>
<clipPath id="clip6">
  <path d="M 0.0273438 5 L 7 5 L 7 12 L 0.0273438 12 Z M 0.0273438 5 "/>
</clipPath>
</defs>
<g id="surface1">
<g clip-path="url(#clip1)" clip-rule="nonzero">
<path style=" stroke:none;fill-rule:nonzero;fill:rgb(100%,100%,100%);fill-opacity:1;" d="M 0.09375 7.519531 L 8.558594 0.214844 L 3.328125 10.753906 Z M 0.09375 7.519531 "/>
</g>
<g clip-path="url(#clip2)" clip-rule="nonzero">
<path style="fill:none;stroke-width:1;stroke-linecap:butt;stroke-linejoin:miter;stroke:rgb(45.882353%,45.882353%,45.882353%);stroke-opacity:1;stroke-miterlimit:4;" d="M 1.020833 83.157169 L 93.193576 2.375919 L 36.239583 118.925551 Z M 1.020833 83.157169 " transform="matrix(0.0918367,0,0,0.0904255,0,0)"/>
</g>
<g clip-path="url(#clip3)" clip-rule="nonzero">
<path style=" stroke:none;fill-rule:nonzero;fill:rgb(100%,100%,100%);fill-opacity:1;" d="M 8.902344 9.480469 L 0.4375 16.785156 L 5.664062 6.246094 Z M 8.902344 9.480469 "/>
</g>
<g clip-path="url(#clip4)" clip-rule="nonzero">
<path style="fill:none;stroke-width:1;stroke-linecap:butt;stroke-linejoin:miter;stroke:rgb(45.882353%,45.882353%,45.882353%);stroke-opacity:1;stroke-miterlimit:4;" d="M 96.936632 104.842831 L 4.763889 185.624081 L 61.675347 69.074449 Z M 96.936632 104.842831 " transform="matrix(0.0918367,0,0,0.0904255,0,0)"/>
</g>
<g clip-path="url(#clip5)" clip-rule="nonzero">
<path style=" stroke:none;fill-rule:nonzero;fill:rgb(45.882353%,45.882353%,45.882353%);fill-opacity:1;" d="M 0.117188 7.542969 L 5.570312 6.234375 L 3.328125 10.753906 Z M 0.117188 7.542969 "/>
</g>
<g clip-path="url(#clip6)" clip-rule="nonzero">
<path style="fill:none;stroke-width:1;stroke-linecap:butt;stroke-linejoin:miter;stroke:rgb(45.882353%,45.882353%,45.882353%);stroke-opacity:1;stroke-miterlimit:4;" d="M 1.276042 83.41636 L 60.654514 68.944853 L 36.239583 118.925551 Z M 1.276042 83.41636 " transform="matrix(0.0918367,0,0,0.0904255,0,0)"/>
</g>
</g>
</svg>
