<svg width="15" height="15" viewBox="0 0 15 15" fill="none" xmlns="http://www.w3.org/2000/svg">
<path d="M7.84149 0.775189C8.11291 0.773977 8.37195 0.888838 8.55394 1.09092L8.78522 1.35302H10.446L10.1771 2.11872H5.50418L5.23527 1.35302H6.89763L7.12879 1.09565H7.1289C7.31091 0.893569 7.56993 0.778713 7.84136 0.779925L7.84149 0.775189ZM7.84136 1.12654e-05C7.3494 0.000561891 6.88107 0.211234 6.55325 0.579393H4.95839C4.76815 0.579723 4.59032 0.674432 4.48334 0.832354C4.37626 0.990277 4.35399 1.19105 4.42366 1.36877L4.95839 2.89071H10.7244L11.2576 1.36877C11.3272 1.19136 11.305 0.990824 11.1984 0.833003C11.0917 0.67508 10.9145 0.580264 10.7244 0.579381H9.12957C8.80175 0.211217 8.33338 0.000563847 7.84146 0L7.84136 1.12654e-05Z" fill="black"/>
<path d="M10.4254 4.77713C11.2118 5.51915 13.9879 8.37194 13.9879 11.5264C13.9879 12.5762 13.5616 13.2235 13.2014 13.5788C12.8546 13.952 12.3809 14.1808 11.874 14.2197H3.80551C3.29853 14.1811 2.82457 13.9522 2.47799 13.5788C2.12099 13.2205 1.69159 12.5731 1.69159 11.5264C1.69159 8.38293 4.47232 5.52705 5.25542 4.77713H10.4252H10.4254ZM10.7241 4.00195H4.95801C4.95801 4.00195 0.920654 7.47525 0.920654 11.5262C0.920654 13.8408 2.65081 14.9995 3.80368 14.9995H11.877C13.0315 14.998 14.7614 13.8408 14.7614 11.5262C14.7614 7.47497 10.7255 4.00195 10.7255 4.00195H10.7241Z" fill="black"/>
<path d="M9.42216 9.46265C9.16939 9.28568 8.88196 9.16454 8.57913 9.10737L8.2646 9.03314L8.26449 7.79863L8.32735 7.82858H8.32746C8.44573 7.88596 8.54557 7.9756 8.61546 8.08727C8.68523 8.19905 8.72232 8.32823 8.72221 8.46017H9.70204C9.71038 7.99268 9.49513 7.54953 9.12333 7.26817C8.86935 7.08018 8.57532 6.95365 8.26452 6.89871V6.39355H7.43884V6.86722C7.04859 6.88814 6.67536 7.03428 6.37411 7.28393C6.05923 7.56056 5.88249 7.96286 5.89117 8.38278C5.89117 8.8638 6.05584 9.21742 6.38509 9.44375C6.57697 9.57799 6.92925 9.70111 7.43887 9.81476V11.1473V11.1472C7.25686 11.1162 7.09055 11.0245 6.967 10.8867C6.86047 10.7396 6.79629 10.5659 6.78148 10.3847H5.81262C5.79255 10.8512 5.99815 11.2986 6.36457 11.5861C6.67767 11.8207 7.04973 11.9628 7.43886 11.9966V12.576L8.26619 12.5761V12.0013C8.65917 11.974 9.0344 11.8269 9.34202 11.5799C9.67577 11.307 9.86644 10.8956 9.85942 10.4636C9.88202 10.0789 9.71943 9.7066 9.42223 9.46268L9.42216 9.46265ZM7.07392 8.70168C7.00041 8.66688 6.93854 8.61138 6.89608 8.54177C6.85362 8.47217 6.83234 8.39167 6.83486 8.31018C6.83256 8.22109 6.85373 8.13299 6.8963 8.0548C6.93876 7.97661 7.00118 7.91108 7.0771 7.86494C7.18693 7.79457 7.31013 7.74776 7.43882 7.72761V8.83272C7.31265 8.80299 7.19022 8.75905 7.07393 8.70167L7.07392 8.70168ZM8.43915 11.1093C8.38243 11.1275 8.32462 11.1423 8.26614 11.1535V10.0058C8.40437 10.0414 8.53756 10.0944 8.6624 10.1636C8.72856 10.2009 8.7832 10.2557 8.82072 10.3218C8.85813 10.388 8.87678 10.4632 8.8748 10.5393C8.87831 10.6701 8.83695 10.7981 8.75763 10.9019C8.67831 11.0057 8.56586 11.0788 8.43914 11.1092L8.43915 11.1093Z" fill="black"/>
</svg>
