<svg width="14" height="10" viewBox="0 0 14 10" fill="none" xmlns="http://www.w3.org/2000/svg">
<path d="M12.7582 0.00835189C12.508 0.0403161 12.2767 0.15436 12.1027 0.331493L4.70836 7.49627L1.79891 5.24547C1.68574 5.15682 1.55561 5.09071 1.416 5.05095C1.27638 5.01118 1.13003 4.99856 0.985359 5.01378C0.840687 5.02899 0.700542 5.07173 0.572979 5.13959C0.445416 5.20745 0.33295 5.29907 0.242042 5.40917C0.151134 5.51928 0.0835767 5.64571 0.0432523 5.78119C0.00292791 5.91668 -0.0093685 6.05853 0.00706906 6.19863C0.0235066 6.33874 0.0683544 6.47432 0.139035 6.59758C0.209716 6.72083 0.304837 6.82932 0.418932 6.91684L4.09887 9.7694C4.31241 9.93298 4.58079 10.0144 4.85247 9.99792C5.12415 9.98146 5.37999 9.86833 5.57085 9.68026L13.6667 1.83577C13.8323 1.67929 13.943 1.47635 13.9832 1.25561C14.0234 1.03487 13.991 0.807475 13.8906 0.605536C13.7902 0.403598 13.6269 0.237314 13.4237 0.130161C13.2205 0.0230081 12.9877 -0.0195995 12.7582 0.00835189Z" fill="white"/>
</svg>
