<svg width="80" height="80" viewBox="0 0 80 80" fill="none" xmlns="http://www.w3.org/2000/svg">
<path fill-rule="evenodd" clip-rule="evenodd" d="M6.18334 40C6.18334 21.3229 21.3229 6.18334 40 6.18334C58.6771 6.18334 73.8167 21.3229 73.8167 40C73.8167 58.676 58.6771 73.8167 40 73.8167C21.3229 73.8167 6.18334 58.6771 6.18334 40ZM40 0C17.9079 0 0 17.9079 0 40C0 62.0921 17.9079 80 40 80C62.0922 80 80 62.0908 80 40C80 17.9079 62.0921 0 40 0ZM60.4229 29.8838C61.6302 28.6765 61.6302 26.7189 60.4229 25.5116C59.2155 24.3042 57.258 24.3042 56.0506 25.5116L33.632 47.9301L23.9452 38.2434C22.7378 37.036 20.7803 37.036 19.5729 38.2434C18.3656 39.4507 18.3656 41.4083 19.5729 42.6156L31.4459 54.4886C32.6532 55.6959 34.6108 55.6959 35.8181 54.4886L60.4229 29.8838Z" fill="#4FC925"/>
</svg>
