<svg width="17" height="17" viewBox="0 0 17 17" fill="none" xmlns="http://www.w3.org/2000/svg">
<path fill-rule="evenodd" clip-rule="evenodd" d="M9.10787 0.860827C9.67577 0.625664 10.4272 0.775295 10.8617 1.2097L11.0187 1.36664C11.0882 1.43613 11.2149 1.51591 11.3668 1.57885C11.5188 1.64179 11.6648 1.67492 11.763 1.67493L11.985 1.67495C12.5996 1.67501 13.2367 2.10083 13.4718 2.66844L13.5568 2.87351C13.5944 2.96431 13.6809 3.08649 13.7972 3.20279C13.9135 3.31909 14.0357 3.40555 14.1264 3.44315L14.3315 3.52812C14.8994 3.7634 15.3249 4.40059 15.325 5.01499L15.325 5.23698C15.325 5.33525 15.3582 5.48122 15.4211 5.63318C15.4841 5.78513 15.5639 5.91177 15.6333 5.98123L15.7903 6.13821C16.2249 6.57288 16.3742 7.32444 16.1391 7.8921L16.0542 8.09719C16.0166 8.18799 15.9914 8.33554 15.9914 8.50002C15.9914 8.66449 16.0166 8.81202 16.0542 8.90276L16.1391 9.10786C16.3743 9.67576 16.2247 10.4273 15.7903 10.8617L15.6333 11.0187C15.5638 11.0882 15.4841 11.2149 15.4211 11.3668C15.3582 11.5188 15.325 11.6648 15.325 11.763L15.325 11.985C15.3249 12.5996 14.8991 13.2367 14.3315 13.4718L14.1264 13.5568C14.0357 13.5944 13.9135 13.6809 13.7972 13.7972C13.6809 13.9135 13.5944 14.0357 13.5568 14.1264L13.4718 14.3315C13.2366 14.8994 12.5994 15.3249 11.985 15.325L11.763 15.325C11.6647 15.325 11.5187 15.3582 11.3668 15.4211C11.2148 15.4841 11.0882 15.5639 11.0187 15.6333L10.8617 15.7903C10.4271 16.2248 9.67553 16.3742 9.10787 16.1391L8.90278 16.0542C8.81198 16.0166 8.66442 15.9914 8.49994 15.9914C8.33546 15.9914 8.18794 16.0166 8.09719 16.0542L7.89209 16.1391C7.32419 16.3743 6.57272 16.2247 6.13823 15.7903L5.98124 15.6333C5.91174 15.5638 5.78508 15.484 5.63312 15.4211C5.48116 15.3582 5.3352 15.325 5.23698 15.325L5.01501 15.325C4.40035 15.3249 3.7633 14.8991 3.52812 14.3315L3.44315 14.1264C3.40553 14.0356 3.31904 13.9135 3.20273 13.7972C3.08643 13.6809 2.96426 13.5944 2.87352 13.5568L2.66845 13.4718C2.10059 13.2366 1.67502 12.5994 1.67495 11.985L1.67493 11.763C1.67492 11.6647 1.64177 11.5187 1.57882 11.3668C1.51587 11.2148 1.43609 11.0882 1.36664 11.0187L1.2097 10.8617C0.775115 10.4271 0.625761 9.67552 0.860824 9.10786L0.945756 8.90276C0.983355 8.81196 1.00859 8.66441 1.00859 8.49994C1.00858 8.33546 0.983332 8.18794 0.945756 8.09719L0.860826 7.8921C0.625663 7.3242 0.775299 6.5727 1.2097 6.13821L1.36664 5.98123C1.43613 5.91173 1.51591 5.78507 1.57885 5.63311C1.64179 5.48115 1.67492 5.33519 1.67493 5.23698L1.67495 5.01499C1.67502 4.40033 2.10083 3.7633 2.66844 3.52812L2.87352 3.44315C2.96431 3.40553 3.08649 3.31904 3.20279 3.20273C3.31909 3.08643 3.40555 2.96426 3.44315 2.87352L3.52812 2.66844C3.7634 2.10059 4.40061 1.67501 5.01501 1.67495L5.23698 1.67493C5.33526 1.67492 5.48123 1.64177 5.63319 1.57882C5.78515 1.51587 5.91178 1.43609 5.98124 1.36665L6.13823 1.2097C6.5729 0.775113 7.32443 0.625764 7.89209 0.860825L8.09719 0.945751C8.18799 0.98335 8.33554 1.00859 8.50002 1.00858C8.6645 1.00858 8.81203 0.983329 8.90277 0.945753L9.10787 0.860827ZM9.80425 1.94307C9.70056 1.92244 9.61111 1.93135 9.55993 1.95254L9.35483 2.03747C9.10191 2.1422 8.79578 2.19019 8.50006 2.1902C8.20434 2.19021 7.89816 2.14224 7.64514 2.03747L7.44004 1.95254C7.38891 1.93137 7.29946 1.92244 7.19576 1.94306C7.09207 1.96368 7.01283 2.00615 6.97366 2.04531L6.81668 2.20226C6.62309 2.39581 6.35862 2.55729 6.08541 2.67047C5.8122 2.78365 5.51097 2.85651 5.23711 2.85654L5.01512 2.85656C4.95978 2.85657 4.87373 2.88255 4.78582 2.94128C4.69791 3.00002 4.64095 3.06957 4.61975 3.12074L4.53478 3.32582C4.42999 3.57872 4.24745 3.82912 4.03835 4.03824C3.82924 4.24735 3.57882 4.42994 3.32582 4.53477L3.12074 4.61974C3.06962 4.64092 3.00006 4.69786 2.94131 4.78577C2.88257 4.87367 2.85657 4.95973 2.85657 5.01512L2.85655 5.23709C2.85652 5.51085 2.7837 5.81204 2.67054 6.08526C2.55737 6.35848 2.39589 6.623 2.20226 6.81667L2.04532 6.97365C2.00619 7.01278 1.96371 7.09201 1.94307 7.19571C1.92244 7.2994 1.93135 7.38885 1.95254 7.44002L2.03747 7.64512C2.1422 7.89805 2.19019 8.20418 2.1902 8.4999C2.19021 8.79563 2.14225 9.10181 2.03747 9.35483L1.95254 9.55993C1.93137 9.61106 1.92244 9.70051 1.94307 9.8042C1.96369 9.9079 2.00616 9.98714 2.04532 10.0263L2.20226 10.1833C2.39581 10.3769 2.5573 10.6413 2.67048 10.9146C2.78366 11.1878 2.85652 11.489 2.85655 11.7629L2.85657 11.9848C2.85657 12.0402 2.88256 12.1262 2.94129 12.2142C3.00002 12.3021 3.06958 12.359 3.12074 12.3802L3.32582 12.4652C3.57872 12.57 3.82912 12.7525 4.03824 12.9616C4.24736 13.1707 4.42995 13.4211 4.53478 13.6741L4.61975 13.8792C4.64094 13.9303 4.69787 13.9999 4.78578 14.0586C4.87368 14.1174 4.95974 14.1434 5.01512 14.1434L5.23711 14.1434C5.51086 14.1434 5.81206 14.2163 6.08527 14.3294C6.35849 14.4426 6.62301 14.6041 6.81668 14.7977L6.97366 14.9546C7.0128 14.9938 7.09202 15.0363 7.19572 15.0569C7.29941 15.0775 7.38886 15.0686 7.44003 15.0474L7.64513 14.9625C7.89806 14.8578 8.20419 14.8098 8.49991 14.8098C8.79563 14.8097 9.10181 14.8577 9.35483 14.9625L9.55993 15.0474C9.61106 15.0686 9.70051 15.0775 9.80421 15.0569C9.9079 15.0363 9.98713 14.9938 10.0263 14.9546L10.1833 14.7977C10.3769 14.6041 10.6413 14.4427 10.9146 14.3295C11.1878 14.2163 11.489 14.1434 11.7629 14.1434L11.9848 14.1434C12.0402 14.1434 12.1262 14.1174 12.2142 14.0587C12.3021 13.9999 12.359 13.9304 12.3802 13.8792L12.4652 13.6741C12.57 13.4212 12.7525 13.1708 12.9616 12.9617C13.1707 12.7526 13.4211 12.57 13.6741 12.4652L13.8792 12.3802C13.9304 12.359 13.9999 12.3021 14.0587 12.2142C14.1174 12.1263 14.1434 12.0402 14.1434 11.9848L14.1434 11.7629C14.1434 11.4891 14.2163 11.1879 14.3294 10.9147C14.4426 10.6415 14.6041 10.377 14.7977 10.1833L14.9546 10.0263C14.9938 9.98717 15.0363 9.90794 15.0569 9.80425C15.0775 9.70055 15.0686 9.6111 15.0474 9.55993L14.9625 9.35483C14.8578 9.10191 14.8098 8.79578 14.8098 8.50005C14.8098 8.20433 14.8577 7.89814 14.9625 7.64512L15.0474 7.44002C15.0686 7.38889 15.0775 7.29945 15.0569 7.19575C15.0363 7.09205 14.9938 7.01282 14.9547 6.97365L14.7977 6.81667C14.6042 6.62308 14.4427 6.35861 14.3295 6.0854C14.2163 5.81219 14.1434 5.51095 14.1434 5.23709L14.1434 5.01512C14.1434 4.95977 14.1174 4.87372 14.0587 4.7858C13.9999 4.69789 13.9304 4.64094 13.8792 4.61974L13.6741 4.53477C13.4212 4.42998 13.1708 4.24745 12.9617 4.03834C12.7526 3.82924 12.57 3.57882 12.4652 3.32582L12.3802 3.12074C12.359 3.06961 12.3021 3.00005 12.2142 2.94131C12.1263 2.88257 12.0402 2.85657 11.9848 2.85656L11.7629 2.85654C11.4891 2.85651 11.1879 2.78369 10.9147 2.67053C10.6415 2.55737 10.377 2.39588 10.1833 2.20226L10.0263 2.04531C9.98717 2.00618 9.90795 1.9637 9.80425 1.94307ZM11.1067 6.68282H9.56863C9.60099 6.5102 9.63334 6.37211 9.6657 6.23402L9.69003 6.12965C9.69933 6.08873 9.70889 6.04756 9.7186 6.00573L9.7186 6.00571C9.77931 5.74419 9.84587 5.45744 9.89236 5.05031C9.94629 4.45666 9.54161 4.07893 9.09639 4.01145C8.65117 3.94397 8.12501 4.17331 8.00361 4.73994C7.7338 5.95412 6.69494 6.77712 6.38466 7.00645C6.38466 7.00645 6.3712 7.00645 6.3712 7.01991L4.68467 7.0201C4.33392 7.0201 4.03711 7.30346 4.03711 7.66766V10.6223C4.03711 10.973 4.32048 11.2699 4.68467 11.2699H6.43859C6.51952 11.2969 6.614 11.3373 6.72195 11.3913L6.72741 11.3941C7.0919 11.5831 7.65866 11.8769 8.81315 11.8769H10.8234C11.2821 11.8769 11.6869 11.5531 11.7678 11.1079C11.8082 10.8785 11.7543 10.6356 11.6328 10.4468C11.7542 10.3254 11.8352 10.1634 11.8622 9.98809C11.9026 9.75875 11.8487 9.51585 11.7272 9.32699C11.8486 9.20559 11.9295 9.04362 11.9566 8.86831C11.997 8.63896 11.9431 8.39606 11.8216 8.2072C11.943 8.0858 12.0239 7.92383 12.0509 7.74852C12.0914 7.47871 12.0239 7.20891 11.8486 7.00646C11.6328 6.79077 11.3765 6.68281 11.1067 6.68281L11.1067 6.68282ZM6.12831 10.5414H4.75216V7.74865H6.12831V10.5414ZM11.0797 7.78912H10.8233C10.621 7.78912 10.459 7.95099 10.459 8.15342C10.459 8.35575 10.6209 8.51771 10.8233 8.51771H11.0256C11.0796 8.51771 11.1336 8.54472 11.1741 8.58519C11.2011 8.61219 11.228 8.66612 11.2145 8.74705C11.2011 8.84154 11.0931 8.90892 10.9852 8.90892H10.7288C10.5265 8.90892 10.3645 9.07079 10.3645 9.27321C10.3645 9.47555 10.5264 9.63751 10.7288 9.63751H10.9311C10.9851 9.63751 11.0391 9.66452 11.0796 9.70498C11.1066 9.73199 11.1335 9.78592 11.12 9.86685C11.1066 9.96134 10.9986 10.0287 10.8907 10.0287H10.6343C10.432 10.0287 10.27 10.1906 10.27 10.393C10.27 10.5953 10.4319 10.7573 10.6343 10.7573H10.8367C10.8906 10.7573 10.9446 10.7843 10.9851 10.8248C11.0121 10.8518 11.039 10.9057 11.0255 10.9867C11.0121 11.0811 10.9041 11.1485 10.7962 11.1485H8.79958C7.81473 11.1485 7.38295 10.9326 7.04566 10.7438C6.97838 10.7034 6.9111 10.6764 6.84391 10.6495L6.84333 10.6493V7.57322C7.23454 7.27641 8.3948 6.31856 8.70518 4.90191C8.74564 4.69958 8.94797 4.71304 8.98854 4.72649C9.08303 4.73995 9.19088 4.79397 9.17742 4.98286C9.14208 5.34803 9.08615 5.58981 9.02762 5.84286L9.002 5.95424C8.98812 6.01676 8.97333 6.07928 8.95811 6.14365L8.95807 6.14382L8.95807 6.14384C8.91419 6.32941 8.86668 6.53034 8.82658 6.79069C8.79957 6.9391 8.84004 7.10097 8.94799 7.22246C9.04247 7.34386 9.19078 7.39788 9.35275 7.39788H11.1201C11.174 7.39788 11.2281 7.42489 11.2685 7.46535C11.2955 7.49236 11.3224 7.54629 11.309 7.62722C11.282 7.72161 11.1876 7.78909 11.0796 7.78909L11.0797 7.78912ZM5.81831 9.85343C5.81831 10.0621 5.64911 10.2312 5.44046 10.2312C5.23191 10.2312 5.0627 10.0621 5.0627 9.85343C5.0627 9.64479 5.2319 9.47567 5.44046 9.47567C5.6491 9.47567 5.81831 9.64478 5.81831 9.85343Z" fill="white"/>
</svg>
