<svg width="14" height="14" viewBox="0 0 14 14" fill="none" xmlns="http://www.w3.org/2000/svg">
<path d="M7.02197 -0.000207378C10.865 0.0123926 14.0219 3.17218 13.9995 6.98857C13.9984 7.91039 13.8158 8.82297 13.462 9.67421C13.1082 10.5254 12.5902 11.2987 11.9376 11.9497C11.285 12.6007 10.5106 13.1169 9.65848 13.4686C8.80641 13.8204 7.89339 14.0008 6.97157 13.9997C3.12578 14.0067 -0.0186096 10.8232 -0.00040967 6.93817C0.0158586 5.08847 0.763604 3.3204 2.07944 2.02031C3.39527 0.720217 5.1722 -0.00619819 7.02197 -0.000207378Z" fill="black"/>
<path d="M6.70489 10.9675H6.1897C6.1808 10.9601 6.1709 10.954 6.1603 10.9493C6.00716 10.8889 5.88181 10.774 5.8084 10.6266C5.73498 10.4793 5.7187 10.31 5.7627 10.1513C5.9965 9.18674 6.2373 8.22354 6.4711 7.25894C6.50363 7.12536 6.52701 6.98971 6.5411 6.85295C6.54582 6.83602 6.5457 6.81811 6.54075 6.80125C6.5358 6.7844 6.52621 6.76927 6.51307 6.7576C6.49994 6.74592 6.48379 6.73817 6.46647 6.73523C6.44915 6.73229 6.43135 6.73427 6.4151 6.74095C6.35956 6.75307 6.30555 6.77138 6.2541 6.79555C6.1365 6.84455 6.0231 6.90195 5.9055 6.94815C5.86426 6.9716 5.81594 6.97942 5.76941 6.97016C5.72287 6.9609 5.68123 6.9352 5.6521 6.89775V6.70875C5.73191 6.59666 5.8224 6.49257 5.9223 6.39795C6.2751 6.11795 6.63769 5.85335 7.00169 5.58735C7.07964 5.5359 7.16326 5.49362 7.25089 5.46135C7.36585 5.41126 7.49351 5.39806 7.61629 5.42355C7.71877 5.437 7.81707 5.47272 7.90428 5.52819C7.9915 5.58366 8.06552 5.65754 8.12115 5.74466C8.17678 5.83177 8.21267 5.93 8.22631 6.03246C8.23994 6.13492 8.23099 6.23912 8.20009 6.33775C7.97142 7.27108 7.74276 8.19974 7.51409 9.12374C7.4775 9.27497 7.45039 9.42833 7.43289 9.58293C7.4285 9.5999 7.42918 9.61778 7.43485 9.63436C7.44052 9.65094 7.45093 9.6655 7.46478 9.67623C7.47864 9.68696 7.49534 9.69338 7.51281 9.69472C7.53029 9.69605 7.54777 9.69223 7.56309 9.68373C7.64989 9.65714 7.73109 9.61514 7.81509 9.58154C7.89909 9.54794 8.02089 9.49614 8.12589 9.46114C8.15565 9.45011 8.18817 9.44893 8.21866 9.45775C8.24914 9.46656 8.276 9.48493 8.29529 9.51014C8.31696 9.53481 8.33026 9.56571 8.33327 9.5984C8.33629 9.6311 8.32887 9.66392 8.31209 9.69214C8.28662 9.7461 8.25414 9.79647 8.21549 9.84194C8.12879 9.93734 8.03521 10.0262 7.93549 10.1079C7.55351 10.4329 7.14146 10.7207 6.70489 10.9675Z" fill="white"/>
<path d="M7.37072 4.98681C7.17655 4.98848 6.98626 4.93242 6.82399 4.82575C6.66173 4.71909 6.53482 4.56662 6.45936 4.3877C6.38389 4.20878 6.36328 4.01148 6.40014 3.82083C6.437 3.63018 6.52967 3.45478 6.66638 3.31688C6.8031 3.17898 6.9777 3.08481 7.16802 3.04631C7.35835 3.00781 7.55582 3.02672 7.73538 3.10064C7.91494 3.17456 8.0685 3.30016 8.17656 3.4615C8.28462 3.62283 8.34231 3.81264 8.34232 4.00682C8.34324 4.13506 8.3188 4.26222 8.2704 4.38099C8.22201 4.49976 8.15061 4.60779 8.06031 4.69886C7.97002 4.78994 7.86261 4.86226 7.74426 4.91168C7.62592 4.9611 7.49897 4.98663 7.37072 4.98681Z" fill="white"/>
</svg>
