<svg width="14" height="18" viewBox="0 0 14 18" fill="none" xmlns="http://www.w3.org/2000/svg">
<path d="M12.6538 2.25H9.69231V1.6875C9.69231 0.755508 8.96909 0 8.07692 0H5.92308C5.03091 0 4.30769 0.755508 4.30769 1.6875V2.25H1.34615C0.602707 2.25 0 2.87961 0 3.65625V4.78125C0 5.09193 0.241063 5.34375 0.538462 5.34375H13.4615C13.7589 5.34375 14 5.09193 14 4.78125V3.65625C14 2.87961 13.3973 2.25 12.6538 2.25ZM5.38462 1.6875C5.38462 1.37742 5.62625 1.125 5.92308 1.125H8.07692C8.37375 1.125 8.61539 1.37742 8.61539 1.6875V2.25H5.38462V1.6875Z" fill="black"/>
<path d="M1.0219 6.46875C0.925818 6.46875 0.849256 6.55263 0.853833 6.6529L1.29806 16.3927C1.33912 17.2941 2.04787 18 2.91143 18H11.0886C11.9522 18 12.6609 17.2941 12.702 16.3927L13.1462 6.6529C13.1508 6.55263 13.0742 6.46875 12.9782 6.46875H1.0219ZM9.15388 7.875C9.15388 7.56422 9.39484 7.3125 9.69234 7.3125C9.98984 7.3125 10.2308 7.56422 10.2308 7.875V15.1875C10.2308 15.4983 9.98984 15.75 9.69234 15.75C9.39484 15.75 9.15388 15.4983 9.15388 15.1875V7.875ZM6.46157 7.875C6.46157 7.56422 6.70253 7.3125 7.00003 7.3125C7.29753 7.3125 7.53849 7.56422 7.53849 7.875V15.1875C7.53849 15.4983 7.29753 15.75 7.00003 15.75C6.70253 15.75 6.46157 15.4983 6.46157 15.1875V7.875ZM3.76926 7.875C3.76926 7.56422 4.01023 7.3125 4.30773 7.3125C4.60523 7.3125 4.84619 7.56422 4.84619 7.875V15.1875C4.84619 15.4983 4.60523 15.75 4.30773 15.75C4.01023 15.75 3.76926 15.4983 3.76926 15.1875V7.875Z" fill="black"/>
</svg>
