<svg width="15" height="12" viewBox="0 0 15 12" fill="none" xmlns="http://www.w3.org/2000/svg">
<path fill-rule="evenodd" clip-rule="evenodd" d="M7.14066 3.18405L7.1704 3.66112L6.67481 3.6027C4.87088 3.37877 3.29491 2.61937 1.95683 1.34396L1.30265 0.711118L1.13415 1.17844C0.777332 2.22019 1.0053 3.32036 1.74868 4.06029C2.14515 4.4692 2.05595 4.52762 1.37204 4.28422C1.13415 4.20633 0.926008 4.14792 0.906185 4.17712C0.836803 4.24528 1.07468 5.13125 1.26301 5.48174C1.52071 5.96854 2.04603 6.44561 2.62091 6.72795L3.10659 6.95188L2.53171 6.96161C1.97665 6.96161 1.95683 6.97135 2.0163 7.1758C2.21453 7.80864 2.99756 8.48042 3.86979 8.7725L4.48432 8.97696L3.94909 9.28851C3.15615 9.73637 2.22445 9.9895 1.29274 10.009C0.846715 10.0187 0.47998 10.0577 0.47998 10.0869C0.47998 10.1842 1.68921 10.7294 2.39294 10.9436C4.50414 11.5765 7.01181 11.3039 8.89504 10.2232C10.2331 9.45402 11.5712 7.92547 12.1956 6.44561C12.5326 5.65699 12.8696 4.21607 12.8696 3.52481C12.8696 3.07696 12.8994 3.01854 13.4544 2.48306C13.7815 2.17151 14.0888 1.83075 14.1483 1.73339C14.2474 1.54841 14.2375 1.54841 13.732 1.71392C12.8895 2.006 12.7705 1.96706 13.1868 1.52894C13.4941 1.21739 13.8608 0.652702 13.8608 0.48719C13.8608 0.457982 13.7121 0.506662 13.5436 0.594286C13.3652 0.691646 12.9688 0.837685 12.6714 0.925309L12.1362 1.09082L11.6505 0.769533C11.3829 0.594286 11.0062 0.399566 10.808 0.341151C10.3025 0.204847 9.52939 0.224319 9.07345 0.380095C7.83449 0.818213 7.05146 1.94759 7.14066 3.18405Z" fill="#000000"/>
</svg>
