<svg width="85" height="85" viewBox="0 0 85 85" fill="none" xmlns="http://www.w3.org/2000/svg">
<path d="M46.6616 27.2H37.4408L38.9504 45.356H45.1112L46.6616 27.2Z" fill="#FCC327"/>
<path d="M38.7056 54.9032C39.576 55.7192 40.6912 56.1272 42.0512 56.1272C43.384 56.1272 44.4856 55.7192 45.356 54.9032C46.2264 54.06 46.6616 53.04 46.6616 51.8432C46.6616 50.6192 46.2264 49.6128 45.356 48.824C44.5128 48.0352 43.4112 47.6408 42.0512 47.6408C40.6912 47.6408 39.576 48.0352 38.7056 48.824C37.8352 49.6128 37.4 50.6192 37.4 51.8432C37.4 53.04 37.8352 54.06 38.7056 54.9032Z" fill="#FCC327"/>
<path fill-rule="evenodd" clip-rule="evenodd" d="M85 42.5C85 65.9721 65.9721 85 42.5 85C19.0279 85 0 65.9721 0 42.5C0 19.0279 19.0279 0 42.5 0C65.9721 0 85 19.0279 85 42.5ZM78.2 42.5C78.2 62.2166 62.2166 78.2 42.5 78.2C22.7834 78.2 6.8 62.2166 6.8 42.5C6.8 22.7834 22.7834 6.8 42.5 6.8C62.2166 6.8 78.2 22.7834 78.2 42.5Z" fill="#FCC327"/>
</svg>
