<svg width="19" height="16" viewBox="0 0 19 16" fill="none" xmlns="http://www.w3.org/2000/svg">
<path d="M17.3644 16H0.888954C0.732908 16 0.579612 15.9589 0.444474 15.8809C0.309335 15.8029 0.197116 15.6906 0.119095 15.5555C0.0410733 15.4204 -9.91059e-07 15.2671 0 15.111C9.91095e-07 14.955 0.0410772 14.8017 0.1191 14.6665L8.35636 0.442913C8.4345 0.308198 8.54667 0.196377 8.68162 0.118646C8.81658 0.0409142 8.96958 0 9.12532 0C9.28106 0 9.43407 0.0409142 9.56902 0.118646C9.70398 0.196377 9.81614 0.308198 9.89429 0.442913L18.1324 14.6665C18.2104 14.8016 18.2515 14.9548 18.2515 15.1108C18.2516 15.2668 18.2106 15.42 18.1327 15.5551C18.0547 15.6902 17.9427 15.8025 17.8076 15.8806C17.6726 15.9586 17.5194 15.9998 17.3635 16H17.3644ZM9.1271 2.35716L2.08461 14.5123H16.16L9.1271 2.35716ZM10.0116 10.667H8.23368V6.22126H10.0116V10.667Z" fill="white"/>
</svg>
