<svg width="36" height="30" viewBox="0 0 36 30" fill="none" xmlns="http://www.w3.org/2000/svg">
<path d="M16.633 18.2394L16.2994 13.2521C16.2342 12.2487 15.8917 10.6268 16.6581 9.81148C17.2414 9.18431 18.6224 9.07644 19.0414 9.94569C19.3976 10.9671 19.4764 12.0648 19.2697 13.1267L18.8231 18.2607C18.8039 18.7439 18.6981 19.2197 18.5108 19.6655C18.437 19.8098 18.3252 19.9311 18.1875 20.0164C18.0497 20.1017 17.8913 20.1477 17.7292 20.1494C17.5672 20.151 17.4079 20.1084 17.2684 20.026C17.1289 19.9435 17.0146 19.8246 16.9378 19.6819C16.7613 19.22 16.6585 18.7332 16.633 18.2394ZM17.7883 25.0918C17.3927 25.0896 17.0129 24.9367 16.726 24.6644C16.4392 24.392 16.2669 24.0206 16.2442 23.6257C16.2215 23.2308 16.3501 22.8421 16.6039 22.5386C16.8576 22.2352 17.2175 22.0399 17.6102 21.9923C17.8211 21.9668 18.0351 21.9848 18.2389 22.0451C18.4426 22.1055 18.6318 22.207 18.7948 22.3433C18.9579 22.4796 19.0912 22.6479 19.1867 22.8378C19.2821 23.0277 19.3376 23.2351 19.3498 23.4472C19.362 23.6594 19.3306 23.8718 19.2575 24.0713C19.1845 24.2709 19.0713 24.4533 18.9249 24.6074C18.7786 24.7615 18.6023 24.884 18.4068 24.9673C18.2113 25.0506 18.0008 25.093 17.7883 25.0918Z" fill="white"/>
<path d="M31.818 30H3.73846C3.07873 29.9898 2.43304 29.808 1.86502 29.4722C1.297 29.1365 0.826275 28.6586 0.499234 28.0855C0.172192 27.5125 0.000127461 26.8641 7.07874e-08 26.2043C-0.000127319 25.5445 0.171687 24.8961 0.498507 24.3229L14.5546 1.79122C14.8961 1.24234 15.372 0.789726 15.9374 0.476266C16.5027 0.162806 17.1387 -0.00112475 17.7852 5.80831e-06C18.4316 0.00113637 19.067 0.16729 19.6313 0.482726C20.1955 0.798162 20.6699 1.25243 21.0094 1.80251L35.0429 24.2965C35.3752 24.8694 35.552 25.5191 35.5556 26.1814C35.5593 26.8436 35.3897 27.4953 35.0638 28.0718C34.7378 28.6483 34.2668 29.1295 33.6975 29.4677C33.1281 29.806 32.4802 29.9895 31.818 30V30ZM16.6983 3.09322L2.64342 25.6249C2.53978 25.8162 2.48727 26.0311 2.49099 26.2487C2.49471 26.4662 2.55452 26.6792 2.66464 26.8669C2.77476 27.0546 2.93146 27.2107 3.11958 27.3201C3.3077 27.4295 3.52086 27.4884 3.73846 27.4913H31.818C32.038 27.488 32.2533 27.4274 32.4427 27.3154C32.6321 27.2035 32.7891 27.0441 32.8981 26.8531C33.0071 26.662 33.0644 26.4458 33.0644 26.2258C33.0644 26.0058 33.0071 25.7896 32.898 25.5985C32.898 25.5985 18.8645 3.10074 18.8582 3.09322C18.7427 2.91138 18.5832 2.76164 18.3944 2.6579C18.2056 2.55416 17.9937 2.49977 17.7783 2.49977C17.5628 2.49977 17.3509 2.55416 17.1621 2.6579C16.9733 2.76164 16.8138 2.91138 16.6983 3.09322Z" fill="white"/>
</svg>
