<svg version="1.2" xmlns="http://www.w3.org/2000/svg" viewBox="0 0 38 29" width="38" height="29"><style></style><path  d="m0.5 0.1h3.9l3 5.5 2.9-5.5h3.7l-4.9 8.8v4.7h-3.6v-4.6z"/><path fill-rule="evenodd" d="m12.9 6.9c0-4.1 3.3-6.9 7.1-6.9 3.8 0 7.1 2.9 7.1 6.9 0 4.1-3.3 7-7.1 7-3.8-0.1-7.1-2.9-7.1-7zm10.5 0c0-2.1-1.3-3.8-3.5-3.8-2.2 0-3.5 1.7-3.5 3.8 0 2.1 1.3 3.8 3.5 3.8 2.3 0 3.5-1.7 3.5-3.8z"/><path  d="m30.4 3.1h-3.5v-3h10.6v3h-3.5v10.5h-3.6z"/><path fill-rule="evenodd" d="m5.1 28.4h-3.5v-13.5h5c3.6 0 5.6 2.3 5.6 5.3 0 3-2 5.3-5.6 5.3h-1.5zm1.3-6c1.6 0 2.2-0.9 2.2-2.2 0-1.3-0.6-2.3-2.2-2.3h-1.3v4.5z"/><path fill-rule="evenodd" d="m12.8 21.7c0-4.1 3.3-6.9 7.1-6.9 3.8 0 7.1 2.9 7.1 6.9 0 4.1-3.3 7-7.1 7-3.8-0.1-7.1-2.9-7.1-7zm10.6 0c0-2.1-1.3-3.8-3.5-3.8-2.2 0-3.5 1.7-3.5 3.8 0 2.1 1.3 3.8 3.5 3.8 2.2 0 3.5-1.7 3.5-3.8z"/><path  d="m27 26.7c0-1.2 0.9-2 1.9-2 1 0 1.9 0.8 1.9 2 0 1.2-0.9 2-1.9 2-1-0.1-1.9-0.9-1.9-2z"/></svg>