<svg width="23" height="15" viewBox="0 0 23 15" fill="none" xmlns="http://www.w3.org/2000/svg">
<path d="M18.3794 0H4.1419C3.17594 0 2.24955 0.386308 1.56651 1.07394C0.88348 1.76157 0.499756 2.69421 0.499756 3.66667V11.3333C0.499756 12.3058 0.88348 13.2384 1.56651 13.9261C2.24955 14.6137 3.17594 15 4.1419 15H18.3794C19.3453 15 20.2717 14.6137 20.9547 13.9261C21.6378 13.2384 22.0215 12.3058 22.0215 11.3333V3.66667C22.0215 2.69421 21.6378 1.76157 20.9547 1.07394C20.2717 0.386308 19.3453 0 18.3794 0ZM12.1712 9.16667L8.9429 10.8333V4.16667L12.1712 5.83333L15.3994 7.5L12.1712 9.16667Z" fill="white"/>
</svg>
