<svg width="23" height="15" viewBox="0 0 23 15" fill="none" xmlns="http://www.w3.org/2000/svg">
<path d="M18.3794 0H4.14196C3.176 0 2.24961 0.386308 1.56658 1.07394C0.883541 1.76157 0.499817 2.69421 0.499817 3.66667V11.3333C0.499817 12.3058 0.883541 13.2384 1.56658 13.9261C2.24961 14.6137 3.176 15 4.14196 15H18.3794C19.3454 15 20.2718 14.6137 20.9548 13.9261C21.6378 13.2384 22.0216 12.3058 22.0216 11.3333V3.66667C22.0216 2.69421 21.6378 1.76157 20.9548 1.07394C20.2718 0.386308 19.3454 0 18.3794 0ZM12.1712 9.16667L8.94296 10.8333V4.16667L12.1712 5.83333L15.3995 7.5L12.1712 9.16667Z" fill="white"/>
</svg>
